<svg width="126" height="124" viewBox="0 0 126 124" fill="none" xmlns="http://www.w3.org/2000/svg">
<path d="M70.925 51.625C69.9 51.625 69.05 50.775 69.05 49.75V23.7C69.05 22.675 69.9 21.825 70.925 21.825H73.3C73.525 21.825 73.75 21.875 73.95 21.95L85.475 26.225C86.2 26.5 86.7 27.2 86.7 28V49.75C86.7 50.775 85.85 51.625 84.825 51.625H70.925ZM72.825 47.85H82.975V29.275L72.825 25.5V47.85Z" fill="#B7976E"/>
<path d="M96.95 51.6251C95.925 51.6251 95.075 50.7751 95.075 49.7501V32.4751C95.075 31.8501 95.375 31.2751 95.875 30.9251C96.2 30.7001 96.575 30.6001 96.95 30.6001C97.175 30.6001 97.4 30.6501 97.6 30.7251L111.5 35.8751C112.225 36.1501 112.725 36.8501 112.725 37.6501V49.7751C112.725 50.8001 111.875 51.6501 110.85 51.6501H96.95V51.6251ZM98.825 47.8501H108.975V38.9251L98.825 35.1501V47.8501Z" fill="#B7976E"/>
<path d="M18.05 78.8999C17.025 78.8999 16.175 78.0499 16.175 77.0249V63.0249C16.175 62.2749 16.625 61.5749 17.325 61.2999L33.075 54.6749C33.3 54.5749 33.55 54.5249 33.8 54.5249H41.7C42.725 54.5249 43.575 55.3749 43.575 56.3999V77.0249C43.575 78.0499 42.725 78.8999 41.7 78.8999H18.05ZM19.925 64.2499V75.1249H39.825V58.2499H34.175L19.925 64.2499Z" fill="#B7976E"/>
<path d="M1.875 123.5C0.85 123.5 0 122.65 0 121.625V53.5C0 52.75 0.45 52.075 1.125 51.775L56 28.875V2.375C56 1.75 56.3 1.175 56.8 0.825C57.125 0.6 57.5 0.5 57.875 0.5C58.1 0.5 58.325 0.55 58.525 0.625L124.6 25.025C125.325 25.3 125.825 26 125.825 26.8V121.65C125.825 122.675 124.975 123.525 123.95 123.525H1.875V123.5ZM110.85 105.025C111.875 105.025 112.725 105.875 112.725 106.9V119.725H122.025V28.075L59.725 5.075V74.575C59.725 75.6 58.875 76.45 57.85 76.45C56.825 76.45 55.975 75.6 55.975 74.575V32.975L3.75 54.725V107.4H16.15V89.275C16.15 88.25 17 87.4 18.025 87.4H41.675C42.7 87.4 43.55 88.25 43.55 89.275V107.4H55.95V83.425C55.95 82.4 56.8 81.55 57.825 81.55C58.85 81.55 59.7 82.4 59.7 83.425V119.725H69V106.9C69 105.875 69.85 105.025 70.875 105.025C71.9 105.025 72.75 105.875 72.75 106.9V119.725H79.9V95.725C79.9 94.7 80.75 93.85 81.775 93.85H99.85C100.875 93.85 101.725 94.7 101.725 95.725V119.725H108.875V106.9C108.975 105.85 109.825 105.025 110.85 105.025ZM83.75 119.725H98.075V97.6H83.75V119.725ZM3.75 119.725H55.975V111.15H3.75V119.725ZM19.925 107.4H39.825V91.15H19.925V107.4Z" fill="#B7976E"/>
<path d="M96.95 84.3C95.925 84.3 95.075 83.45 95.075 82.425V61.425C95.075 60.4 95.925 59.55 96.95 59.55H110.85C111.875 59.55 112.725 60.4 112.725 61.425V82.425C112.725 83.45 111.875 84.3 110.85 84.3H96.95ZM98.825 80.5251H108.975V63.3H98.825V80.5251Z" fill="#B7976E"/>
<path d="M70.925 84.3C69.9 84.3 69.05 83.45 69.05 82.425V61.425C69.05 60.4 69.9 59.55 70.925 59.55H84.825C85.85 59.55 86.7 60.4 86.7 61.425V82.425C86.7 83.45 85.85 84.3 84.825 84.3H70.925ZM72.825 80.5251H82.975V63.3H72.825V80.5251Z" fill="#B7976E"/>
</svg>
