<svg width="138" height="138" viewBox="0 0 138 138" fill="none" xmlns="http://www.w3.org/2000/svg">
<path d="M133.256 40.834H131.936L119.591 7.57383C118.513 4.66289 115.71 2.69531 112.583 2.69531H25.4168C22.3172 2.69531 19.4871 4.66289 18.409 7.57383L6.06445 40.834H4.74375C2.1293 40.834 0 42.9633 0 45.5777V49.3781C0 51.9926 2.1293 54.1219 4.74375 54.1219H5.44453V102.799C5.44453 103.904 6.36094 104.821 7.46602 104.821C8.57109 104.821 9.4875 103.904 9.4875 102.799V54.1488H41.2383C43.0172 54.1488 44.6883 53.448 45.9281 52.2082L69 29.1094L92.0719 52.1813C93.3117 53.4211 95.0098 54.1219 96.7617 54.1219H128.512V63.852C128.512 64.957 129.429 65.8734 130.534 65.8734C131.639 65.8734 132.555 64.957 132.555 63.852V54.1219H133.256C135.871 54.1219 138 51.9926 138 49.3781V45.5777C138 42.9633 135.871 40.834 133.256 40.834ZM22.2094 9.00234C22.6945 7.65469 23.9883 6.76523 25.4168 6.76523H112.583C114.012 6.76523 115.305 7.65469 115.791 9.00234L127.623 40.834H99.5379L73.7168 15.0129C72.45 13.7461 70.7789 13.0723 69.027 13.0723C67.275 13.0723 65.577 13.773 64.3371 15.0129L38.516 40.834H10.377L22.2094 9.00234ZM133.957 49.4051C133.957 49.7824 133.634 50.1059 133.256 50.1059H96.7617C96.0609 50.1059 95.4141 49.8363 94.9289 49.3512L70.4285 24.8508C69.6469 24.0691 68.3531 24.0691 67.5715 24.8508L43.0711 49.3242C42.5859 49.8094 41.9121 50.0789 41.2383 50.0789H4.74375C4.36641 50.0789 4.04297 49.7555 4.04297 49.3781V45.5777C4.04297 45.2004 4.36641 44.877 4.74375 44.877H39.2977C39.8367 44.877 40.3488 44.6613 40.7262 44.284L67.1402 17.8699C67.6254 17.3848 68.2992 17.1152 68.973 17.1152C69.6469 17.1152 70.3207 17.3848 70.8059 17.8699L97.2199 44.284C97.5973 44.6613 98.1094 44.877 98.6484 44.877H133.202C133.58 44.877 133.903 45.2004 133.903 45.5777L133.957 49.4051Z" fill="#B7976E"/>
<path d="M121.559 114.578C122.664 114.578 123.58 113.661 123.58 112.556V76.6277C123.58 75.5226 122.664 74.6062 121.559 74.6062H94.3359C93.2309 74.6062 92.3145 75.5226 92.3145 76.6277V112.556C92.3145 113.661 93.2309 114.578 94.3359 114.578H121.559ZM119.537 101.829H109.969V92.2605H119.537V101.829ZM105.926 101.829H96.3574V92.2605H105.926V101.829ZM119.537 110.535H96.3574V105.872H119.537V110.535ZM119.537 88.2175H109.969V78.6492H119.537V88.2175ZM105.926 78.6492V88.2175H96.3574V78.6492H105.926ZM43.691 114.578C44.7961 114.578 45.7125 113.661 45.7125 112.556V76.6277C45.7125 75.5226 44.7961 74.6062 43.691 74.6062H16.4414C15.3363 74.6062 14.4199 75.5226 14.4199 76.6277V112.556C14.4199 113.661 15.3363 114.578 16.4414 114.578H43.691ZM41.6695 101.829H32.0742V92.2605H41.6426V101.829H41.6695ZM28.0312 101.829H18.4629V92.2605H28.0312V101.829ZM41.6695 110.535H18.4898V105.872H41.6695V110.535ZM41.6695 88.2175H32.0742V78.6492H41.6426V88.2175H41.6695ZM28.0312 78.6492V88.2175H18.4629V78.6492H28.0312ZM75.5227 83.3121H62.4504C61.3453 83.3121 60.4289 84.2285 60.4289 85.3335V94.0394C60.4289 95.1445 61.3453 96.0609 62.4504 96.0609H75.5227C76.6277 96.0609 77.5441 95.1445 77.5441 94.0394V85.3335C77.5441 84.2285 76.6547 83.3121 75.5227 83.3121ZM73.5012 92.0179H64.4719V87.355H73.5012V92.0179ZM79.7273 55.146C79.7273 49.2164 74.9027 44.4187 69 44.4187C63.0973 44.4187 58.2727 49.2433 58.2727 55.146C58.2727 61.0488 63.0973 65.8734 69 65.8734C74.9027 65.8734 79.7273 61.0488 79.7273 55.146ZM62.3156 55.146C62.3156 51.4535 65.3074 48.4617 69 48.4617C72.6926 48.4617 75.6844 51.4535 75.6844 55.146C75.6844 58.8386 72.6926 61.8304 69 61.8304C65.3074 61.8304 62.3156 58.8386 62.3156 55.146Z" fill="#B7976E"/>
<path d="M135.979 122.017H132.555V73.3125C132.555 72.2074 131.639 71.291 130.534 71.291C129.429 71.291 128.512 72.2074 128.512 73.3125V122.017H86.277V71.2371C86.277 70.132 85.3605 69.2156 84.2555 69.2156H53.7445C52.6395 69.2156 51.723 70.132 51.723 71.2371V122.044H9.4875V112.287C9.4875 111.182 8.57109 110.265 7.46602 110.265C6.36094 110.265 5.44453 111.182 5.44453 112.287V122.044H2.02148C0.916406 122.044 0 122.96 0 124.065V133.31C0 134.415 0.916406 135.332 2.02148 135.332H135.979C137.084 135.332 138 134.415 138 133.31V124.065C138 122.933 137.084 122.017 135.979 122.017ZM55.766 102.88H58.65C59.7551 102.88 60.6715 101.964 60.6715 100.859C60.6715 99.7535 59.7551 98.8371 58.65 98.8371H55.766V73.2585H82.207V122.044H55.766V102.88ZM133.957 131.289H4.04297V126.087H133.957V131.289Z" fill="#B7976E"/>
</svg>
