<svg width="138" height="134" viewBox="0 0 138 134" fill="none" xmlns="http://www.w3.org/2000/svg">
<path d="M57.4371 117.315C57.2484 117.315 57.0328 117.261 56.8441 117.153H56.8172H56.7902C55.739 116.803 55.173 115.671 55.5234 114.62L61.2105 97.5583C61.8035 95.8063 63.4476 94.6204 65.3074 94.6204C65.4691 94.6204 65.6578 94.6204 65.8195 94.6473C67.841 94.8899 69.4312 96.534 69.5929 98.5825L70.4554 108.771L71.7761 106.534C72.5578 105.24 73.9594 104.431 75.4687 104.431C75.5765 104.431 75.6843 104.431 75.8191 104.458C77.4633 104.593 78.8648 105.617 79.4847 107.154L81.1289 111.277L86.816 104.323L86.6812 104.135C85.1719 102.032 85.0371 99.2293 86.3308 96.9922L88.6488 92.6528L93.5004 79.6883L113.284 45.404L111.02 44.0833C110.077 43.5442 109.726 42.3043 110.292 41.361C110.562 40.9028 110.993 40.5524 111.505 40.4176C111.667 40.3637 111.855 40.3368 112.017 40.3368C112.368 40.3368 112.718 40.4176 113.014 40.6063L115.278 41.9001L121.289 31.6309C121.639 31.011 122.313 30.6336 123.014 30.6336C123.364 30.6336 123.715 30.7145 124.011 30.9032L124.281 31.0649L125.602 28.8008C126.491 27.2645 127.92 26.1594 129.618 25.7012C130.184 25.5395 130.75 25.4856 131.343 25.4856C132.502 25.4856 133.661 25.7821 134.658 26.375C136.194 27.2645 137.299 28.693 137.757 30.3911C138.243 32.1161 138 33.9758 137.084 35.5122L135.763 37.7762L136.032 37.9379C136.976 38.504 137.299 39.7168 136.76 40.6602L130.83 50.9293L133.095 52.25C134.631 53.1395 135.736 54.568 136.194 56.2661C136.652 57.9641 136.41 59.7969 135.52 61.3063L126.275 77.3165C125.898 77.9364 125.251 78.3407 124.523 78.3407C124.173 78.3407 123.823 78.2598 123.526 78.0711C123.499 78.0442 123.472 78.0442 123.445 78.0172C122.529 77.3973 122.286 76.1575 122.879 75.2411L132.124 59.204C132.475 58.611 132.555 57.8833 132.394 57.2094C132.205 56.5356 131.774 55.9696 131.154 55.6192L128.89 54.2985L108.918 88.9872L100.104 99.6875L97.7859 103.569C96.6 105.59 94.4168 106.83 92.0719 106.83H91.991C91.398 106.83 90.832 106.749 90.266 106.615L90.0773 106.561L84.6328 113.568C84.1746 114.161 83.5547 114.593 82.8539 114.889C82.3418 115.105 81.8027 115.186 81.2636 115.186C79.4847 115.186 77.9215 114.107 77.2476 112.463L75.5765 108.259L74.3906 110.199C73.6898 111.385 72.423 112.167 71.0484 112.275C70.9137 112.275 70.8058 112.302 70.698 112.302C68.4879 112.302 66.6011 110.577 66.4125 108.34L65.6039 98.9598L65.0109 98.879L59.3508 115.94C59.0543 116.776 58.2996 117.315 57.4371 117.315ZM89.9695 98.9868C89.2957 100.173 89.6461 101.655 90.7512 102.41C91.1824 102.706 91.7215 102.895 92.2605 102.895C92.4492 102.895 92.6379 102.868 92.8265 102.841C93.5543 102.679 94.1742 102.221 94.5246 101.601L95.8453 99.3372L91.2902 96.7227L89.9695 98.9868ZM92.9074 92.9762L96.5461 95.1055L97.9207 95.9141L104.309 88.2055L96.4113 83.6504L92.9074 92.9762ZM98.0824 79.9579L106.6 84.8903L125.386 52.3309L116.869 47.3985L98.0824 79.9579ZM118.863 43.9485L127.38 48.8809L132.313 40.3637L123.796 35.4313L118.863 43.9485ZM131.343 29.5286C131.127 29.5286 130.911 29.5555 130.696 29.6094C130.022 29.7981 129.429 30.2293 129.105 30.8493L127.785 33.1133L132.34 35.7278L133.661 33.4637C133.984 32.8438 134.092 32.143 133.93 31.4692C133.741 30.7954 133.31 30.2024 132.69 29.879C132.259 29.6633 131.801 29.5286 131.343 29.5286ZM27.9504 110.792C26.7914 110.792 25.7133 110.361 24.9047 109.552L19.9992 104.647C19.2176 103.838 19.2176 102.572 19.9992 101.79C20.3765 101.413 20.8886 101.197 21.4008 101.197C21.9398 101.197 22.425 101.413 22.8023 101.79L27.9234 106.911L36.3058 98.5286C36.6562 98.2321 37.1144 98.0704 37.5996 98.0704C38.0847 98.0704 38.5429 98.2321 38.8933 98.5555C39.2976 98.9059 39.5402 99.3911 39.5941 99.9301C39.648 100.469 39.4594 100.981 39.109 101.386L30.9691 109.552C30.2144 110.361 29.1363 110.792 27.9504 110.792Z" fill="#B7976E"/>
<path d="M28.5703 123.864C17.9238 123.864 9.24487 115.186 9.24487 104.539C9.24487 100.388 10.6195 96.2645 13.0992 92.9492C16.7917 88.0437 22.425 85.2137 28.5703 85.2137C32.775 85.2137 36.791 86.5613 40.1601 89.068H40.1871C40.6183 89.3914 40.8878 89.8496 40.9417 90.3887C41.0226 90.9277 40.8878 91.4398 40.5644 91.8711C40.1871 92.3832 39.5941 92.6797 38.9472 92.6797C38.516 92.6797 38.0847 92.5449 37.7343 92.2754C35.1199 90.3078 31.8585 89.2027 28.5703 89.2027C20.1339 89.2027 13.2609 96.0758 13.2609 104.539C13.2609 113.002 20.1339 119.875 28.5972 119.875C37.0335 119.875 43.9335 113.002 43.9335 104.539C43.9335 103.434 44.823 102.545 45.9281 102.545C47.0332 102.545 47.9226 103.434 47.9226 104.539C47.8957 115.186 39.2167 123.864 28.5703 123.864ZM50.5101 75.7262C49.405 75.7262 48.5156 74.8367 48.5156 73.7316C48.5156 72.6266 49.405 71.7371 50.5101 71.7371H66.682C67.7871 71.7371 68.6765 72.6266 68.6765 73.7316C68.6765 74.8367 67.7871 75.7262 66.682 75.7262H50.5101ZM18.1664 75.7262C17.0613 75.7262 16.1718 74.8367 16.1718 73.7316C16.1718 72.6266 17.0613 71.7371 18.1664 71.7371H41.2652C42.3703 71.7371 43.2597 72.6266 43.2597 73.7316C43.2597 74.8367 42.3703 75.7262 41.2652 75.7262H18.1664ZM73.6089 64.1902C72.5039 64.1902 71.6144 63.3008 71.6144 62.1957C71.6144 61.0906 72.5039 60.2012 73.6089 60.2012H89.7808C90.8859 60.2012 91.7753 61.0906 91.7753 62.1957C91.7753 63.3008 90.8859 64.1902 89.7808 64.1902H73.6089ZM18.1664 64.1902C17.0613 64.1902 16.1718 63.3008 16.1718 62.1957C16.1718 61.0906 17.0613 60.2012 18.1664 60.2012H64.364C65.4691 60.2012 66.3585 61.0906 66.3585 62.1957C66.3585 63.3008 65.4691 64.1902 64.364 64.1902H18.1664ZM38.9472 53.0316C37.8421 53.0316 36.9527 52.1422 36.9527 51.0371C36.9527 49.932 37.8421 49.0426 38.9472 49.0426H89.7808C90.8859 49.0426 91.7753 49.932 91.7753 51.0371C91.7753 52.1422 90.8859 53.0316 89.7808 53.0316H38.9472ZM29.7023 36.8598C28.5972 36.8598 27.7078 35.9703 27.7078 34.8652C27.7078 33.7602 28.5972 32.8707 29.7023 32.8707H75.9C77.005 32.8707 77.8945 33.7602 77.8945 34.8652C77.8945 35.9703 77.005 36.8598 75.9 36.8598H29.7023ZM22.7753 27.6148C21.6703 27.6148 20.7808 26.7254 20.7808 25.6203V16.3754C20.7808 15.2703 21.6703 14.3809 22.7753 14.3809H82.8539C83.9589 14.3809 84.8484 15.2703 84.8484 16.3754C84.8484 17.4805 83.9589 18.3699 82.8539 18.3699H24.7968V23.5988H82.8539C83.9589 23.5988 84.8484 24.4883 84.8484 25.5934C84.8484 26.6984 83.9589 27.5879 82.8539 27.5879L22.7753 27.6148Z" fill="#B7976E"/>
<path d="M103.392 104.081C102.395 104.216 101.64 105.132 101.64 106.129V126.479C101.64 127.934 100.481 129.093 99.0258 129.093H6.60352C5.14805 129.093 3.98906 127.934 3.98906 126.479V25.3237C3.98906 24.2186 3.09961 23.3292 1.99453 23.3292C0.889453 23.3022 0 24.2186 0 25.3237V126.506C0 130.144 2.96484 133.109 6.60352 133.109H99.0258C102.691 133.109 105.656 130.144 105.656 126.479V106.075C105.656 104.889 104.605 103.946 103.392 104.081Z" fill="#B7976E"/>
<path d="M99.0258 0.5H6.60352C2.96484 0.5 0 3.46484 0 7.13047V15.8902C0 16.9953 0.889453 17.8848 1.99453 17.8848C3.09961 17.8848 3.98906 16.9953 3.98906 15.8902V7.13047C3.98906 5.675 5.14805 4.51602 6.60352 4.51602H99.0258C100.481 4.51602 101.64 5.675 101.64 7.13047V47.7488C101.64 48.773 102.368 49.6625 103.392 49.7973C104.605 49.959 105.656 49.0156 105.656 47.8027V7.10352C105.656 3.46484 102.691 0.5 99.0258 0.5Z" fill="#B7976E"/>
</svg>
