<svg width="138" height="139" viewBox="0 0 138 139" fill="none" xmlns="http://www.w3.org/2000/svg">
<path d="M1.99453 135.948C0.889453 135.948 0 135.058 0 133.953V124.654C0 123.549 0.889453 122.66 1.99453 122.66H4.3125V88.4293C4.3125 87.3242 5.20195 86.4348 6.30703 86.4348H10.916V46.7328H1.99453C0.889453 46.7328 0 45.8434 0 44.7383V36.1133C0 35.0082 0.889453 34.1187 1.99453 34.1187H36.9527V19.591L29.9449 18.2434C29.0016 18.0547 28.3277 17.2461 28.3277 16.2758V5.49453C28.3277 5.35977 28.3277 5.225 28.3547 5.11719C28.5434 4.17383 29.352 3.5 30.3223 3.5C30.457 3.5 30.5918 3.5 30.6996 3.52695L134.2 25.0086C135.143 25.1973 135.817 26.0328 135.817 26.9762V69.1309H135.979C137.084 69.1309 137.973 70.0203 137.973 71.1254V79.7504C137.973 80.8555 137.084 81.7449 135.979 81.7449H134.766V122.606H136.005C137.111 122.606 138 123.495 138 124.6V133.899C138 135.004 137.111 135.894 136.005 135.894H1.99453V135.948ZM4.01602 131.932H134.011V126.649H4.01602V131.932ZM126.141 122.633H130.75V81.7719H126.141V122.633ZM78.7031 122.633H122.125V116.272H78.7031V122.633ZM70.0781 122.633H74.6871V81.7719H70.0781V122.633ZM14.932 86.3809H59.4316C60.5367 86.3809 61.4262 87.2703 61.4262 88.3754V122.606H66.0352V81.7719H21.7242C20.6191 81.7719 19.7297 80.8824 19.7297 79.7773V71.1523C19.7297 70.0473 20.6191 69.1578 21.7242 69.1578H36.9797V46.7598H14.932V86.3809ZM36.6562 122.633H57.4371V90.3969H8.32852V122.633H15.4172V103.334H15.2555C14.1504 103.334 13.2609 102.445 13.2609 101.34C13.2609 100.235 14.1504 99.3453 15.2555 99.3453H36.818C37.923 99.3453 38.8125 100.235 38.8125 101.34C38.8125 102.445 37.923 103.334 36.818 103.334H36.6562V122.633ZM19.4062 122.633H32.6402V103.334H19.4062V122.633ZM78.7031 112.256H122.125V107.647H78.7031V112.256ZM78.7031 103.631H122.125V99.0219H78.7031V103.631ZM78.7031 95.0059H122.125V90.3969H78.7031V95.0059ZM78.7031 86.3809H122.125V81.7719H78.7031V86.3809ZM23.7188 77.7559H133.984V73.1469H23.7188V77.7559ZM40.9688 69.1309H123.203V36.1402L40.9688 20.3727V69.1309ZM32.3438 14.6316L125.602 32.5285C126.545 32.7172 127.219 33.5258 127.219 34.4961V69.1578H131.828V28.6203L32.3438 7.94727V14.6316ZM4.01602 42.7168H36.9797V38.1078H4.01602V42.7168Z" fill="#B7976E"/>
<path d="M47.5993 59.2659C46.4942 59.2659 45.6047 58.3765 45.6047 57.2714V42.1776C45.6047 41.0726 46.4942 40.1831 47.5993 40.1831H92.8805C93.9856 40.1831 94.875 41.0726 94.875 42.1776V57.2714C94.875 58.3765 93.9856 59.2659 92.8805 59.2659H47.5993ZM79.7813 55.2499H90.859V44.1722H79.7813V55.2499ZM64.6875 55.2499H75.7653V44.1722H64.6875V55.2499ZM49.5938 55.2499H60.6715V44.1722H49.5938V55.2499Z" fill="#B7976E"/>
</svg>
