<svg width="393" height="137" viewBox="0 0 393 137" fill="none" xmlns="http://www.w3.org/2000/svg">
<g clip-path="url(#clip0_47_244)">
<path d="M99.485 8.1495C97.4446 8.66628 95.5116 9.26919 93.6215 10.0444C87.1782 12.6498 81.3792 16.3534 75.8809 20.5738C67.2039 27.2705 59.5149 35.0007 52.6205 43.5061C44.1583 53.9494 36.233 64.7803 28.8661 76.0418C23.4108 84.3319 19.781 93.3541 18.1487 103.173C17.9984 104.077 17.7191 104.982 17.6547 105.886C17.5903 106.64 17.1822 106.618 16.6882 106.532C13.8961 106.08 11.5336 104.809 9.64351 102.678C6.95879 99.6846 5.75604 96.0456 5.06875 92.1913C4.29555 87.7986 4.38146 83.3845 4.7251 78.9487C4.78954 78.0659 5.305 77.3338 5.64865 76.5586C11.5765 63.5099 19.1796 51.5162 28.4151 40.5561C40.3997 26.3446 54.5105 14.7169 70.8766 5.86704C74.0338 4.16596 77.234 2.55101 80.5201 1.12986C82.4961 0.268558 84.5794 0.483884 86.5768 0.957601C91.3878 2.12036 95.576 4.46742 99.2272 7.82651C99.2917 7.8911 99.3561 7.99877 99.485 8.1495Z" fill="#FEFEFE"/>
<path d="M326.913 59.5907C326.913 65.0815 326.913 70.5723 326.934 76.0631C326.934 76.666 326.806 76.9244 326.183 77.1182C321.887 78.4532 317.527 79.3576 313.081 79.982C309.494 80.4773 305.865 80.6065 302.278 80.4558C295.512 80.1758 288.94 78.97 283.055 75.3095C276.569 71.2829 272.617 65.3614 270.877 58.0403C268.923 49.7933 269.395 41.6755 273.111 33.9453C276.741 26.3874 282.841 21.6071 290.573 18.7648C294.761 17.2145 299.099 16.4393 303.545 16.224C309.709 15.901 315.787 16.3532 321.758 18.0542C322.746 18.3342 324.035 18.4634 324.572 19.217C325.109 19.9491 324.314 21.0903 324.078 22.0378C323.262 25.3753 322.381 28.7129 321.608 32.072C321.458 32.7395 321.221 32.6534 320.792 32.4811C315.487 30.2848 309.924 29.8972 304.297 30.1986C300.56 30.3924 297.059 31.4691 293.988 33.7515C290.852 36.0986 288.919 39.2423 288.103 43.0536C287.007 48.1568 287.265 53.1524 289.606 57.868C292.097 62.9067 296.307 65.6844 301.762 66.6749C304.447 67.1701 307.11 67.0409 309.774 66.6749C310.375 66.5888 310.697 66.4165 310.676 65.6844C310.633 62.5622 310.633 59.4399 310.676 56.3392C310.676 55.6932 310.482 55.5425 309.881 55.5425C307.604 55.5856 305.328 55.5425 303.051 55.5641C302.471 55.5641 302.299 55.4349 302.299 54.8319C302.321 50.9561 302.321 47.1017 302.299 43.2259C302.299 42.623 302.428 42.4076 303.073 42.4076C310.762 42.4292 318.451 42.4292 326.14 42.4076C326.87 42.4076 326.956 42.6445 326.934 43.2689C326.891 48.6736 326.913 54.1429 326.913 59.5907Z" fill="#FEFEFE"/>
<path d="M179.576 15.5133C186.513 15.5133 192.548 16.1808 198.39 18.2264C199.142 18.4848 199.399 18.7216 199.142 19.6045C198.003 23.588 196.951 27.6146 195.877 31.6197C195.748 32.1364 195.555 32.2656 195.018 32.0503C189.906 30.0693 184.601 29.1865 179.124 29.2726C176.504 29.3157 173.905 29.6602 171.521 30.866C170.598 31.3397 169.803 31.9642 169.352 32.9116C168.751 34.1605 169.288 35.5817 170.748 36.5722C172.96 38.0579 175.516 38.79 178.008 39.6298C182.346 41.094 186.814 42.2352 190.937 44.2808C194.309 45.9604 197.424 47.9414 199.722 51.0205C203.974 56.7482 203.695 65.2105 199.142 70.809C195.684 75.051 191.088 77.398 185.954 78.8407C180.005 80.4987 173.948 80.9078 167.806 80.5202C162.114 80.1542 156.551 79.2067 151.16 77.2473C149.872 76.7736 149.872 76.752 150.237 75.417C151.268 71.5411 152.32 67.6868 153.308 63.8109C153.502 63.0358 153.609 62.7989 154.511 63.1434C158.914 64.9091 163.489 66.0288 168.214 66.4594C172.144 66.8255 176.075 66.9116 179.919 65.7273C181.015 65.3828 182.002 64.9091 182.905 64.1985C184.666 62.8204 184.773 60.6887 183.098 59.2029C181.401 57.6741 179.275 56.9636 177.191 56.2099C173.411 54.8534 169.481 53.949 165.744 52.4202C161.792 50.7837 158.033 48.8458 154.962 45.7666C151.934 42.709 150.387 39.0484 150.538 34.7204C150.731 29.6602 152.943 25.569 156.809 22.3606C160.933 18.9154 165.83 17.1928 171.027 16.2669C174.12 15.6855 177.234 15.4271 179.576 15.5133Z" fill="#FEFEFE"/>
<path d="M126.59 99.2106C125.795 103.625 123.54 107.199 120.662 110.408C117.226 114.262 113.102 117.233 108.463 119.473C106.379 120.463 104.167 120.872 101.933 121.109C97.6594 121.561 93.3424 121.626 89.0468 121.432C83.2908 121.174 77.5777 120.636 71.8861 119.731C62.9299 118.288 54.1884 116.157 45.8336 112.518C40.4426 110.171 35.4383 107.242 31.2931 103C29.3816 101.062 27.7922 98.866 26.6324 96.3683C24.8927 92.6431 25.3653 89.0041 27.2553 85.4943C28.6514 82.8888 30.5629 80.671 32.4959 78.4962C33.0328 77.8933 33.4624 76.7736 34.1711 76.8166C34.7725 76.8597 35.3095 77.8502 35.9108 78.3885C40.6145 82.8242 46.0054 86.2264 51.7614 89.1118C59.7082 93.0953 68.0845 95.7869 76.7615 97.5741C81.9806 98.6507 87.2642 99.3828 92.5692 99.8565C95.7908 100.136 99.0125 100.201 102.234 100.33C105.842 100.481 109.451 100.33 113.059 100.201C117.29 100.05 121.521 99.7489 125.709 99.2106C125.967 99.1675 126.246 99.2106 126.59 99.2106Z" fill="#FEFEFE"/>
<path d="M86.1258 16.8702C90.2495 13.8341 94.5236 11.3578 99.5709 10.5181C101.654 10.1735 103.415 10.6042 105.026 12.1545C108.226 15.1691 110.933 18.5713 113.274 22.2533C119.932 32.6751 124.335 44.0013 126.955 56.0811C128.115 61.3996 128.824 66.7612 129.124 72.1875C129.532 79.3578 129.038 86.4636 127.814 93.5263C127.728 94.0861 127.492 94.4953 126.998 94.8398C124.743 96.3901 122.187 96.8208 119.524 96.6701C116.86 96.4978 114.326 95.8303 111.835 94.9044C111.319 94.7106 110.997 94.4737 110.868 93.8278C110.288 90.6194 109.837 87.411 109.494 84.1811C109.043 80.0469 108.549 75.9341 108.098 71.8214C107.41 65.62 106.315 59.5048 104.661 53.4972C101.74 42.9246 97.7453 32.7828 91.7744 23.5238C90.228 21.0475 88.4454 18.8081 86.1258 16.8702Z" fill="#FEFEFE"/>
<path d="M70.7692 29.4667C73.5828 26.1076 76.4179 22.7916 79.9188 20.143C80.5846 19.6478 81.2933 19.2171 82.088 18.9372C82.9256 18.6142 83.57 18.808 84.1499 19.4971C86.4265 22.1671 88.338 25.074 90.0992 28.0886C95.0391 36.4863 98.6044 45.4223 100.688 54.9398C101.762 59.8707 102.599 64.8663 103.458 69.8403C104.081 73.4363 104.661 77.0107 104.983 80.6282C105.305 84.2887 105.585 87.9493 104.339 91.5237C103.823 92.9879 103.029 94.2583 101.762 95.2057C100.387 96.2393 99.0125 96.2178 97.6809 95.1196C95.8767 93.6554 94.8673 91.6098 93.7075 89.6503C91.5597 86.0113 90.6147 81.9632 89.7556 77.8935C87.9514 69.0867 86.1903 60.2583 83.2908 51.7314C81.143 45.4008 78.5227 39.3071 74.5278 33.9024C73.411 32.352 72.1223 30.8878 70.7692 29.4667Z" fill="#FEFEFE"/>
<path d="M114.176 122.509C112.823 124.813 111.663 127.009 110.31 129.055C108.613 131.617 105.971 132.995 103.201 134.072C99.8715 135.343 96.4136 135.945 92.8698 136.29C88.9608 136.656 85.0734 136.634 81.1644 136.376C76.6111 136.075 72.1008 135.472 67.6334 134.653C62.1781 133.663 56.7657 132.543 51.4607 130.864C45.1462 128.861 39.1539 126.191 33.8704 122.078C28.9735 118.267 25.129 113.681 23.3248 107.587C23.0456 106.661 22.8953 105.735 22.7449 104.788C22.6375 104.034 23.0671 103.56 23.8618 103.496C24.9786 103.41 25.8807 103.926 26.7827 104.465C28.3077 105.369 29.6608 106.51 30.9065 107.759C34.6651 111.571 39.1969 114.133 44.0509 116.2C51.0097 119.172 58.2906 121.002 65.7004 122.401C70.4685 123.306 75.258 123.995 80.0905 124.49C85.3526 125.028 90.6146 125.502 95.8982 125.222C101.955 124.899 107.99 124.081 114.176 122.509Z" fill="#FEFEFE"/>
<path d="M72.5304 0.612818C70.4041 1.79711 68.4067 2.85221 66.4307 3.99344C58.8706 8.36456 51.8259 13.4463 45.1892 19.0878C38.2304 25.0093 31.7871 31.4475 25.8163 38.381C17.6118 47.8984 10.3523 58.0834 4.16672 69.0219C3.82307 69.6248 3.54386 70.2278 2.96396 70.6584C2.23372 71.1967 1.50347 71.2398 0.708796 70.8307C-0.0214473 70.4646 -0.042925 69.7971 0.0215082 69.1296C0.300719 66.4596 0.945052 63.8541 1.39608 61.2271C2.31963 55.6933 5.06878 50.913 7.49577 46.0036C11.1899 38.5102 15.5499 31.4045 20.8549 24.9016C25.6445 19.0232 31.2931 14.0922 37.5217 9.76418C41.5595 6.94341 45.6832 4.33796 50.4298 2.85221C54.1669 1.66792 57.9685 1.04347 61.8774 0.742013C65.2924 0.483622 68.6859 0.612818 72.1009 0.591285C72.1653 0.591285 72.2727 0.591285 72.5304 0.612818Z" fill="#FEFEFE"/>
<path d="M389.005 111.226C388.661 105.52 388.833 99.7919 388.769 94.0642C388.769 93.4183 388.876 93.1599 389.585 93.2245C390.509 93.2891 391.432 93.2675 392.356 93.246C392.764 93.246 392.978 93.2891 392.978 93.8058C392.957 101.838 392.957 109.869 392.978 117.901C392.978 118.31 392.893 118.482 392.442 118.482C391.196 118.461 389.929 118.439 388.683 118.482C388.232 118.504 388.06 118.267 387.888 117.922C384.28 111.656 380.285 105.627 377.321 99.0167C377.278 98.9091 377.192 98.8229 377.063 98.7584C377.149 100.416 377.149 102.053 377.192 103.711C377.343 108.405 377.278 113.121 377.3 117.815C377.3 118.331 377.149 118.482 376.634 118.461C375.732 118.418 374.83 118.396 373.949 118.461C373.219 118.525 373.004 118.331 373.004 117.556C373.047 112.367 373.026 107.178 373.026 101.988C373.026 99.2967 373.047 96.5836 373.004 93.892C373.004 93.3537 373.112 93.1814 373.691 93.2029C375.045 93.246 376.376 93.2245 377.729 93.2245C378.073 93.2245 378.331 93.246 378.545 93.5905C381.703 99.0598 385.246 104.292 387.953 109.998C388.253 110.644 388.554 111.29 388.855 111.936C388.919 111.936 389.005 112.173 389.07 111.958C389.112 111.721 389.177 111.463 389.005 111.226Z" fill="#FEFEFE"/>
<path d="M164.971 114.154C165.228 115.274 165.465 116.394 165.701 117.492C165.808 118.009 165.336 117.987 165.078 118.073C162.973 118.784 160.782 118.999 158.57 118.934C155.843 118.848 153.287 118.202 151.032 116.566C148.54 114.757 147.144 112.259 146.607 109.266C145.92 105.347 146.328 101.579 148.626 98.2201C150.645 95.2701 153.523 93.6767 156.981 93.0953C159.709 92.6431 162.436 92.7292 165.099 93.6121C165.722 93.8059 166.002 93.9781 165.744 94.7102C165.422 95.6362 165.228 96.5836 164.971 97.6172C163.252 96.9496 161.491 96.6697 159.666 96.6912C155.241 96.7343 152.02 99.5766 151.354 103.969C151.032 106.187 151.16 108.319 152.041 110.364C153.33 113.336 155.714 114.757 158.807 115.037C160.868 115.188 162.952 114.994 164.971 114.154Z" fill="#FEFEFE"/>
<path d="M323.262 107.759C323.262 111.054 323.24 114.348 323.283 117.643C323.283 118.332 323.09 118.504 322.424 118.482C321.436 118.418 320.448 118.418 319.46 118.482C318.794 118.525 318.623 118.353 318.623 117.664C318.644 111.183 318.644 104.723 318.644 98.2417C318.644 96.8851 318.837 97.0574 317.463 97.0574C315.702 97.0574 313.94 97.0143 312.179 97.0789C311.556 97.1004 311.427 96.8851 311.47 96.3253C311.513 95.5501 311.513 94.7749 311.47 93.9997C311.449 93.4399 311.556 93.2461 312.179 93.2461C318.064 93.2676 323.949 93.2676 329.834 93.2461C330.414 93.2461 330.543 93.4184 330.5 93.9567C330.457 94.7534 330.435 95.5716 330.5 96.3899C330.543 97.0358 330.285 97.1004 329.748 97.1004C327.858 97.0789 325.989 97.122 324.099 97.0789C323.434 97.0574 323.24 97.2296 323.24 97.9187C323.283 101.17 323.262 104.465 323.262 107.759Z" fill="#FEFEFE"/>
<path d="M334.452 105.843C334.452 101.859 334.473 97.8759 334.43 93.8708C334.43 93.2033 334.581 93.0095 335.246 93.0526C336.32 93.1172 337.394 93.1172 338.468 93.0526C339.155 93.0095 339.306 93.2033 339.284 93.8708C339.263 100.804 339.263 107.716 339.263 114.65C339.263 115.791 339.241 116.932 339.263 118.073C339.284 118.504 339.155 118.633 338.704 118.633C337.501 118.612 336.32 118.59 335.117 118.633C334.538 118.655 334.387 118.483 334.387 117.901C334.452 113.875 334.452 109.848 334.452 105.843Z" fill="#FEFEFE"/>
<path d="M266.84 79.1637C265.572 74.9864 264.37 70.8091 263.124 66.6317C258.249 50.2454 253.352 33.8376 248.498 17.4513C248.347 16.9345 248.133 16.7622 247.596 16.7622C240.594 16.7837 233.592 16.7837 226.59 16.7622C226.01 16.7622 225.817 16.9129 225.645 17.4943C221.199 32.9332 216.711 48.3506 212.222 63.7894C210.675 69.108 209.129 74.4481 207.54 79.8743C213.231 79.8743 218.837 79.8743 224.421 79.8743C224.915 79.8743 225.044 79.702 225.173 79.2283C226.225 74.8357 227.321 70.4646 228.351 66.0719C228.523 65.3829 228.781 65.1891 229.468 65.1891C234.279 65.2106 239.09 65.2321 243.923 65.1891C244.632 65.1891 244.889 65.4259 245.061 66.0719C246.242 70.4646 247.445 74.8357 248.648 79.2068C248.777 79.6805 248.949 79.8958 249.464 79.8958C255.091 79.8743 260.718 79.8743 266.346 79.8958C266.926 79.8958 267.011 79.7666 266.84 79.1637ZM241.56 52.7432C238.274 52.7217 234.988 52.7217 231.702 52.7432C231.015 52.7432 230.8 52.7001 230.993 51.8819C232.776 44.5608 234.58 37.2397 236.083 29.854C236.148 29.5741 236.234 29.2942 236.32 29.0143C236.384 29.0143 236.449 29.0358 236.513 29.0358C237.114 31.469 237.694 33.9237 238.296 36.3569C239.606 41.5247 240.895 46.7141 242.248 51.8819C242.462 52.6355 242.291 52.7432 241.56 52.7432Z" fill="#FEFEFE"/>
<path d="M392.248 78.9484C390.745 74.039 389.284 69.1295 387.824 64.2201C383.206 48.6735 378.567 33.1485 373.971 17.602C373.777 16.9129 373.498 16.7622 372.832 16.7622C366.045 16.7837 359.258 16.8053 352.472 16.7622C351.527 16.7622 351.204 17.0206 350.947 17.9465C346.651 32.8686 342.313 47.7907 337.996 62.7128C336.385 68.2252 334.795 73.759 333.185 79.2714C333.056 79.7236 333.013 79.8958 333.571 79.8958C339.005 79.8743 344.46 79.8743 349.894 79.8958C350.345 79.8958 350.517 79.7236 350.624 79.3145C351.698 74.8787 352.794 70.443 353.825 65.9858C353.975 65.3398 354.211 65.2106 354.834 65.2106C359.645 65.2321 364.456 65.2537 369.289 65.2106C370.062 65.2106 370.363 65.4259 370.556 66.158C371.716 70.5076 372.94 74.8572 374.1 79.2068C374.25 79.7666 374.465 79.8958 375.002 79.8958C377.772 79.8743 380.564 79.8958 383.357 79.8958C386.084 79.8958 388.79 79.8528 391.518 79.9174C392.313 79.9174 392.485 79.7451 392.248 78.9484ZM367.162 52.7432C363.79 52.7217 360.397 52.7217 357.025 52.7432C356.316 52.7432 356.252 52.5279 356.402 51.9034C358.228 44.5177 359.989 37.1321 361.535 29.6818C361.578 29.4449 361.664 29.2296 361.75 28.9927C361.814 28.9927 361.879 28.9927 361.943 28.9927C362.373 30.7799 362.824 32.5456 363.253 34.3328C364.735 40.2112 366.196 46.0681 367.699 51.9465C367.871 52.571 367.828 52.7432 367.162 52.7432Z" fill="#FEFEFE"/>
<path d="M191.947 102.785C191.195 97.5745 187.458 93.2249 181.68 92.8373C176.783 92.5143 172.939 94.2369 170.404 98.5219C168.429 101.838 168.235 105.477 168.794 109.159C169.674 114.951 174.313 118.913 180.112 118.956C180.671 118.892 181.229 118.849 181.809 118.784C185.009 118.44 187.673 117.062 189.584 114.435C192.14 110.946 192.548 106.963 191.947 102.785ZM185.095 112.97C182.346 116.179 177.642 115.942 175.194 112.454C173.626 110.214 173.283 107.695 173.433 105.046C173.562 102.505 174.163 100.158 176.01 98.2851C178.738 95.5289 183.227 95.938 185.439 99.1248C186.835 101.127 187.35 103.388 187.329 105.8C187.286 108.405 186.856 110.925 185.095 112.97Z" fill="#FEFEFE"/>
<path d="M263.94 103.108C263.081 96.8206 258.335 92.148 251.182 92.8586C246.801 93.2892 243.708 95.5286 241.818 99.4906C240.487 102.29 240.186 105.261 240.594 108.297C241.066 111.872 242.527 114.93 245.577 117.018C248.025 118.698 250.753 119.15 253.674 118.805C256.831 118.439 259.473 117.126 261.427 114.585C263.446 111.958 264.112 108.922 264.112 105.541C264.005 104.831 264.069 103.969 263.94 103.108ZM258.163 111.183C256.938 113.745 255.027 115.274 252.084 115.188C249.271 115.102 247.424 113.53 246.35 111.075C244.889 107.759 244.932 104.357 246.178 100.998C247.316 97.9618 249.615 96.433 252.643 96.4761C255.156 96.5191 257.475 98.414 258.506 101.256C259.022 102.721 259.344 104.228 259.237 105.692C259.301 107.695 258.979 109.482 258.163 111.183Z" fill="#FEFEFE"/>
<path d="M365.659 97.4881C363.64 94.5596 360.783 93.0308 357.218 92.8155C353.502 92.5786 350.281 93.5907 347.703 96.3684C345.169 99.0815 344.267 102.419 344.267 106.058C344.246 109.546 345.105 112.755 347.489 115.382C350.13 118.289 353.524 119.236 357.347 118.827C361.449 118.396 364.478 116.394 366.389 112.733C367.377 110.817 367.807 108.75 367.914 106.639C368.086 103.345 367.549 100.223 365.659 97.4881ZM363.06 106.596C362.953 108.427 362.609 110.214 361.685 111.807C360.375 114.068 358.442 115.339 355.758 115.188C353.309 115.059 351.569 113.745 350.453 111.657C349.486 109.869 349.057 107.931 349.185 106.015C349.121 103.776 349.508 101.752 350.56 99.8997C353.137 95.3348 359.001 95.3133 361.621 99.8351C362.824 101.902 363.189 104.206 363.06 106.596Z" fill="#FEFEFE"/>
<path d="M213.446 112.712C212.823 110.279 212.308 107.781 209.558 106.511C212.93 105.068 214.434 102.678 214.176 99.2971C213.961 96.4117 212.071 94.28 208.828 93.5048C205.177 92.6435 201.483 93.0096 197.81 93.4833C197.424 93.5263 197.295 93.7417 197.295 94.1508C197.316 102.075 197.316 109.977 197.295 117.901C197.295 118.397 197.445 118.504 197.896 118.483C198.948 118.461 200.001 118.44 201.032 118.483C201.655 118.504 201.848 118.353 201.826 117.707C201.784 115.36 201.805 113.035 201.826 110.688C201.826 109.848 201.461 108.728 201.977 108.276C202.578 107.781 203.695 108.125 204.576 108.147C206.315 108.19 207.497 109.03 208.098 110.666C208.291 111.162 208.463 111.678 208.592 112.195C209.022 114.047 209.43 115.899 210.052 117.707C210.16 118.009 210.138 118.461 210.654 118.461C212.093 118.461 213.553 118.461 215.035 118.461C214.391 116.502 213.94 114.607 213.446 112.712ZM206.251 104.573C204.941 104.852 203.631 104.723 202.32 104.766C201.805 104.788 201.826 104.465 201.826 104.12C201.826 102.979 201.826 101.838 201.826 100.697C201.826 99.7062 201.869 98.7157 201.805 97.7252C201.762 96.9716 201.912 96.627 202.772 96.5624C204.039 96.4763 205.284 96.4117 206.509 96.6916C208.549 97.1654 209.601 98.565 209.537 100.697C209.516 102.656 208.205 104.163 206.251 104.573Z" fill="#FEFEFE"/>
<path d="M285.16 111.85C284.602 109.632 283.871 107.565 281.552 106.51C281.681 106.424 281.724 106.403 281.767 106.381C284.731 105.089 286.363 102.634 286.17 99.7059C285.976 96.519 284.237 94.4089 280.886 93.5691C277.192 92.6216 273.476 93.0523 269.782 93.4829C269.417 93.526 269.267 93.7198 269.267 94.1505C269.288 102.074 269.288 109.977 269.267 117.901C269.267 118.396 269.438 118.504 269.889 118.482C270.963 118.461 272.037 118.439 273.111 118.482C273.648 118.504 273.82 118.375 273.82 117.793C273.777 115.36 273.798 112.927 273.798 110.515C273.798 107.974 273.798 107.996 276.376 108.125C278.395 108.211 279.64 109.223 280.242 111.097C280.392 111.549 280.499 112.001 280.607 112.475C281.036 114.262 281.402 116.071 282.046 117.815C282.153 118.095 282.132 118.482 282.604 118.482C284.022 118.482 285.461 118.482 286.921 118.482C286.298 116.2 285.697 114.047 285.16 111.85ZM281.509 100.675C281.423 102.613 280.22 104.12 278.201 104.572C276.87 104.852 275.517 104.723 274.185 104.766C273.691 104.788 273.755 104.465 273.755 104.163C273.755 103.022 273.755 101.881 273.755 100.739C273.755 99.5982 273.777 98.457 273.755 97.3158C273.734 96.8205 273.906 96.6913 274.4 96.6267C275.753 96.4545 277.085 96.3683 278.395 96.6913C280.306 97.1435 281.595 98.457 281.509 100.675Z" fill="#FEFEFE"/>
<path d="M310.375 112.841C308.335 106.554 306.316 100.266 304.254 94.0001C304.147 93.634 304.104 93.2249 303.481 93.2464C301.848 93.311 300.195 93.268 298.541 93.268C298.197 93.268 298.047 93.3756 297.939 93.7417C297.531 95.0982 297.08 96.4548 296.651 97.8113C294.524 104.465 292.398 111.118 290.25 117.772C290.057 118.375 290.122 118.547 290.766 118.526C291.904 118.483 293.043 118.504 294.181 118.526C294.653 118.526 294.825 118.397 294.976 117.923C295.534 115.985 296.178 114.068 296.715 112.131C296.887 111.528 297.166 111.398 297.703 111.42C299.851 111.441 301.999 111.463 304.168 111.42C304.812 111.398 305.027 111.657 305.199 112.217C305.779 114.112 306.38 116.006 307.003 117.88C307.11 118.203 307.11 118.569 307.647 118.569C309.129 118.526 310.633 118.547 312.179 118.547C311.556 116.545 310.976 114.693 310.375 112.841ZM303.588 107.824C301.827 107.824 300.066 107.802 298.305 107.824C297.811 107.824 297.746 107.652 297.875 107.264C298.949 103.927 300.044 100.568 300.882 97.1223C301.762 100.589 302.944 103.927 304.018 107.307C304.189 107.846 303.953 107.824 303.588 107.824Z" fill="#FEFEFE"/>
<path d="M233.721 94.7533C232.003 93.6121 230.091 93.1384 228.072 93.0953C225.624 93.0092 223.197 93.0522 220.748 93.3968C219.868 93.5044 219.696 93.7844 219.717 94.6026C219.76 98.4139 219.739 102.204 219.739 106.015C219.739 109.912 219.76 113.81 219.717 117.707C219.717 118.418 219.911 118.547 220.555 118.525C221.543 118.461 222.531 118.461 223.519 118.525C224.142 118.568 224.249 118.332 224.228 117.772C224.206 115.102 224.228 112.432 224.206 109.783C224.206 109.309 224.142 109.029 224.894 109.094C227.363 109.309 229.812 109.094 232.132 108.06C237.866 105.498 237.823 97.4664 233.721 94.7533ZM230.156 104.594C228.48 105.692 226.59 105.541 224.722 105.412C224.314 105.39 224.228 105.132 224.228 104.723C224.249 103.496 224.228 102.268 224.228 101.041C224.228 99.8135 224.249 98.5861 224.206 97.3588C224.206 96.9496 224.335 96.7128 224.722 96.6913C226.268 96.5836 227.793 96.4329 229.318 96.9281C231.101 97.5095 231.96 98.8015 232.067 100.589C232.153 102.247 231.573 103.668 230.156 104.594Z" fill="#FEFEFE"/>
</g>
<defs>
<clipPath id="clip0_47_244">
<rect width="393" height="136" fill="white" transform="translate(0 0.569824)"/>
</clipPath>
</defs>
</svg>
