<?xml version="1.0" encoding="utf-8"?>
<!-- Generator: Adobe Illustrator 26.3.1, SVG Export Plug-In . SVG Version: 6.00 Build 0)  -->
<svg version="1.1" id="Layer_1" xmlns="http://www.w3.org/2000/svg" xmlns:xlink="http://www.w3.org/1999/xlink" x="0px" y="0px"
	 viewBox="0 0 813 259.8" style="enable-background:new 0 0 813 259.8;" xml:space="preserve">
<style type="text/css">
	.st0{fill:#B7976E;}
</style>
<g>
	<g>
		<g>
			<path class="st0" d="M308.9,253.1H297v-5.7c-3.6,1.9-8.1,3.6-13.5,5.1c-5.4,1.5-11.7,2.3-18.7,2.3c-9.4,0-17.4-1.5-24.1-4.4
				c-6.7-2.9-12.3-6.9-16.6-11.8c-4.4-4.9-7.6-10.5-9.7-16.7c-2.1-6.2-3.2-12.6-3.2-19.3c0-7.8,1.4-14.7,4.1-20.8
				c2.7-6.1,6.5-11.3,11.4-15.5c4.9-4.2,10.6-7.4,17.3-9.7c6.7-2.2,14-3.4,21.9-3.4c6.9,0,12.9,0.8,18,2.3c5.1,1.5,9.4,3.4,12.8,5.7
				c3.5,2.2,6.2,4.6,8.2,7.2c2,2.6,3.4,4.9,4.3,6.9h-10.1c-0.6-2-1.8-3.9-3.7-5.8c-1.9-1.9-4.4-3.6-7.4-5.1c-3-1.5-6.4-2.7-10.2-3.6
				c-3.8-0.9-7.9-1.4-12.3-1.4c-6.6,0-12.5,1.1-17.4,3.2c-5,2.1-9.2,5.2-12.7,9.1c-3.5,3.9-6.1,8.6-7.8,14
				c-1.7,5.4-2.6,11.4-2.6,17.8c0,6.5,0.9,12.5,2.7,18c1.8,5.5,4.6,10.2,8.2,14.2c3.7,4,8.2,7.1,13.8,9.3c5.5,2.2,12,3.4,19.4,3.4
				c5.6,0,10.6-0.7,15-2c4.4-1.3,8.7-3.3,12.9-6v-25.4h-15.7v-5.7h27.6V253.1z"/>
			<path class="st0" d="M365.9,155c6.3,0,11.4,0.9,15.6,2.6c4.1,1.7,7.4,3.9,9.7,6.4c2.4,2.6,4.1,5.3,5,8.3c1,3,1.5,5.7,1.5,8.3
				c0,2.8-0.5,5.7-1.4,8.6c-0.9,2.9-2.4,5.7-4.4,8.2c-2,2.5-4.7,4.6-7.9,6.3c-3.2,1.7-7.1,2.7-11.5,2.9v0.6l1.4,0.7
				c1.1,0.6,2.1,1.3,2.9,2.1c0.8,0.8,1.8,2.2,3.1,4.1c1.3,1.9,3,4.5,5.1,7.9c2.1,3.4,5.1,8,9,13.7c1.3,2,2.5,3.7,3.8,5.3
				c1.2,1.5,2.5,2.9,3.8,3.9c1.3,1.1,2.7,1.9,4.2,2.5c1.5,0.6,3.2,0.8,5.2,0.8c0.5,0,0.9,0,1.4-0.1c0.5,0,0.9-0.1,1.4-0.2v5.2
				c-1.3,0.7-2.6,1.2-3.9,1.4c-1.3,0.2-3,0.3-5,0.3c-2.8,0-5.2-0.4-7.2-1.1c-2-0.7-3.8-1.8-5.4-3c-1.6-1.3-3-2.8-4.4-4.6
				c-1.3-1.8-2.7-3.7-4.1-5.9l-11.1-16.4c-1.7-2.6-3.1-4.8-4.4-6.6c-1.2-1.8-2.5-3.2-3.9-4.3c-1.4-1.1-3-1.9-4.7-2.4
				c-1.7-0.5-3.9-0.7-6.5-0.7h-6.2v43.3h-12.8V155H365.9z M346.9,203.5h14.5c3.7,0,7.1-0.7,9.9-2c2.9-1.3,5.3-3,7.2-5.1
				c2-2.1,3.4-4.4,4.4-7c1-2.6,1.5-5.1,1.5-7.6c0-3-0.5-5.7-1.6-8.3c-1.1-2.5-2.6-4.7-4.7-6.5c-2.1-1.8-4.5-3.2-7.4-4.3
				c-2.9-1-6.1-1.5-9.6-1.5h-14.2V203.5z"/>
			<path class="st0" d="M427.9,187.1c2-6,5.2-11.5,9.5-16.5c4.3-5,9.8-9.1,16.4-12.4c6.6-3.3,14.6-4.9,23.8-4.9
				c9.3,0,17.5,1.7,24.3,5c6.9,3.3,12.5,7.5,17,12.5c4.5,5,7.8,10.5,10,16.5c2.1,5.9,3.2,11.5,3.2,16.7c0,3.5-0.5,7.1-1.5,10.9
				c-1,3.8-2.4,7.6-4.3,11.4c-1.9,3.8-4.4,7.4-7.4,10.8c-3,3.4-6.5,6.4-10.6,9c-4.1,2.6-8.6,4.7-13.7,6.2c-5.1,1.5-10.8,2.3-17,2.3
				c-9.2,0-17.2-1.7-23.8-5c-6.6-3.3-12.1-7.5-16.4-12.5c-4.3-5-7.5-10.5-9.5-16.5c-2-5.9-3-11.5-3-16.7
				C424.9,198.7,425.9,193.1,427.9,187.1z M441.7,222.1c2,5.5,4.8,10.2,8.3,14.1c3.5,3.9,7.6,7,12.4,9.2c4.8,2.2,10,3.3,15.6,3.3
				c5.5,0,10.7-1.1,15.6-3.3c4.9-2.2,9.2-5.3,12.9-9.2c3.7-3.9,6.6-8.6,8.8-14.1c2.1-5.5,3.2-11.5,3.2-18c0-6.5-1.1-12.5-3.2-18
				c-2.2-5.5-5.1-10.2-8.8-14.1c-3.7-3.9-8-7-12.9-9.2c-4.9-2.2-10.1-3.3-15.6-3.3c-5.6,0-10.8,1.1-15.6,3.3
				c-4.8,2.2-8.9,5.3-12.4,9.2c-3.5,3.9-6.3,8.6-8.3,14.1c-2,5.5-3,11.5-3,18C438.7,210.6,439.7,216.6,441.7,222.1z"/>
			<path class="st0" d="M563.1,155v64.1c0,1.9,0,3.7,0.1,5.6c0.1,1.9,0.4,3.7,1,5.5c0.6,1.8,1.4,3.7,2.5,5.5
				c1.1,1.9,2.8,3.7,4.9,5.6c2.7,2.4,5.6,4.3,8.6,5.5c3,1.2,6.5,1.8,10.4,1.8c4.6,0,9-0.7,13.2-2c4.2-1.3,8-3.8,11.4-7.4
				c1.9-2.1,3.3-4.1,4.3-6.2c1-2.1,1.7-4.1,2.2-6.2c0.5-2.1,0.7-4.2,0.8-6.3c0.1-2.1,0.1-4.2,0.1-6.2V155h6.2v63.9
				c0,5-0.8,9.6-2.4,13.9c-1.6,4.3-3.9,8.2-7.1,11.4c-3.1,3.3-7,5.8-11.6,7.7c-4.6,1.9-9.9,2.8-15.9,2.8c-9.5,0-17.1-1.3-22.6-4
				c-5.5-2.7-9.7-6-12.5-10c-2.8-4-4.6-8.3-5.3-12.9c-0.7-4.6-1.1-8.9-1.1-12.7V155H563.1z"/>
			<path class="st0" d="M669.6,253.1h-12.8V155h32.8c5.4,0,10.1,0.8,14.2,2.4c4,1.6,7.4,3.7,10,6.4c2.7,2.7,4.6,5.8,6,9.4
				c1.3,3.6,2,7.4,2,11.3c0,4.1-0.7,8-2.2,11.6c-1.5,3.6-3.7,6.8-6.7,9.5c-2.9,2.8-6.6,4.9-11,6.5c-4.4,1.6-9.4,2.4-15.1,2.4
				c-3.4,0-6.4-0.2-9.3-0.6c-2.8-0.4-5.4-1-7.8-1.6V253.1z M669.6,206.5c2,0.7,4.2,1.2,6.6,1.5c2.4,0.2,5.1,0.4,8,0.4
				c4.2,0,7.8-0.7,10.8-2.1c3-1.4,5.5-3.2,7.4-5.5c2-2.2,3.4-4.7,4.3-7.5c0.9-2.8,1.3-5.5,1.3-8.2c0-2.8-0.5-5.6-1.5-8.5
				c-1-2.8-2.5-5.4-4.4-7.7c-2-2.3-4.4-4.1-7.4-5.5c-3-1.4-6.4-2.1-10.4-2.1h-14.7V206.5z"/>
		</g>
		<g>
			<path class="st0" d="M251.4,5c6.3,0,11.4,0.9,15.6,2.6c4.1,1.7,7.4,3.9,9.7,6.4c2.4,2.6,4.1,5.4,5,8.3c1,3,1.5,5.7,1.5,8.3
				c0,2.8-0.5,5.7-1.4,8.6s-2.4,5.7-4.4,8.2c-2,2.5-4.7,4.6-7.9,6.3c-3.2,1.7-7.1,2.7-11.5,2.9v0.6l1.4,0.7c1.1,0.6,2.1,1.3,2.9,2.1
				c0.8,0.8,1.8,2.2,3.1,4.1c1.3,1.9,3,4.5,5.1,7.9c2.1,3.4,5.1,8,9,13.7c1.3,2,2.5,3.7,3.8,5.3c1.2,1.5,2.5,2.9,3.8,3.9
				c1.3,1.1,2.7,1.9,4.2,2.5c1.5,0.6,3.2,0.8,5.2,0.8c0.5,0,0.9,0,1.4-0.1c0.5,0,0.9-0.1,1.4-0.2v5.2c-1.3,0.7-2.6,1.2-3.9,1.4
				c-1.3,0.2-3,0.3-5,0.3c-2.8,0-5.2-0.4-7.2-1.1c-2-0.7-3.8-1.8-5.4-3c-1.6-1.3-3-2.8-4.4-4.6c-1.3-1.8-2.7-3.7-4.1-5.9l-11.1-16.4
				c-1.7-2.6-3.1-4.8-4.4-6.6c-1.2-1.8-2.5-3.2-3.9-4.3c-1.4-1.1-3-1.9-4.7-2.4c-1.7-0.5-3.9-0.7-6.5-0.7h-6.2v43.3h-12.8V5H251.4z
				 M232.3,53.5h14.5c3.7,0,7.1-0.7,9.9-2c2.9-1.3,5.3-3,7.2-5.1c2-2.1,3.4-4.4,4.4-7c1-2.6,1.5-5.1,1.5-7.6c0-3-0.5-5.7-1.6-8.3
				c-1.1-2.5-2.6-4.7-4.7-6.5s-4.5-3.2-7.4-4.3c-2.9-1-6.1-1.5-9.6-1.5h-14.2V53.5z"/>
			<path class="st0" d="M383.5,5v7.7H333v35.2h43.5v6.4H333v41.1h50.6v7.7h-63.4V5H383.5z"/>
			<path class="st0" d="M520.7,103.1h-12.8V5h12.8v42.9h58.7V5h12.8v98.1h-12.8V54.3h-58.7V103.1z"/>
			<path class="st0" d="M632,74.2l-12.3,28.9h-6.4L654.7,5h7l45.7,98.1h-13.6l-13.5-28.9H632z M655.4,20.7h-0.6l-20.2,47.2h42.7
				L655.4,20.7z"/>
			<path class="st0" d="M760.2,5c6.3,0,11.4,0.9,15.6,2.6c4.1,1.7,7.4,3.9,9.7,6.4c2.4,2.6,4.1,5.4,5,8.3c1,3,1.5,5.7,1.5,8.3
				c0,2.8-0.5,5.7-1.4,8.6c-0.9,2.9-2.4,5.7-4.4,8.2c-2,2.5-4.7,4.6-7.9,6.3c-3.2,1.7-7.1,2.7-11.5,2.9v0.6l1.4,0.7
				c1.1,0.6,2.1,1.3,2.9,2.1c0.8,0.8,1.8,2.2,3.1,4.1c1.3,1.9,3,4.5,5.1,7.9c2.1,3.4,5.1,8,9,13.7c1.3,2,2.5,3.7,3.8,5.3
				c1.2,1.5,2.5,2.9,3.8,3.9c1.3,1.1,2.7,1.9,4.2,2.5c1.5,0.6,3.2,0.8,5.2,0.8c0.5,0,0.9,0,1.4-0.1c0.5,0,0.9-0.1,1.4-0.2v5.2
				c-1.3,0.7-2.6,1.2-3.9,1.4c-1.3,0.2-3,0.3-5,0.3c-2.8,0-5.2-0.4-7.2-1.1c-2-0.7-3.8-1.8-5.4-3c-1.6-1.3-3-2.8-4.4-4.6
				c-1.3-1.8-2.7-3.7-4.1-5.9l-11.1-16.4c-1.7-2.6-3.1-4.8-4.4-6.6c-1.2-1.8-2.5-3.2-3.9-4.3c-1.4-1.1-3-1.9-4.7-2.4
				c-1.7-0.5-3.9-0.7-6.5-0.7h-6.2v43.3h-12.8V5H760.2z M741.1,53.5h14.5c3.7,0,7.1-0.7,9.9-2c2.9-1.3,5.3-3,7.2-5.1
				c2-2.1,3.4-4.4,4.4-7c1-2.6,1.5-5.1,1.5-7.6c0-3-0.5-5.7-1.6-8.3c-1.1-2.5-2.6-4.7-4.7-6.5c-2.1-1.8-4.5-3.2-7.4-4.3
				c-2.9-1-6.1-1.5-9.6-1.5h-14.2V53.5z"/>
			<polygon class="st0" points="470.1,67.3 466.2,73 481.5,95.4 422.3,95.4 484.5,5 405.5,5 405.5,12.7 464.8,12.7 402,103.1 
				494.7,103.1 			"/>
		</g>
	</g>
	<g>
		<g>
			<path class="st0" d="M120.9,242.1H33.3C17.7,242.1,5,229.5,5,213.8V46c0-15.6,12.7-28.3,28.3-28.3h87.6
				c15.6,0,28.3,12.7,28.3,28.3v167.9C149.2,229.5,136.5,242.1,120.9,242.1z M33.3,26.3c-10.9,0-19.7,8.8-19.7,19.7v167.9
				c0,10.9,8.8,19.7,19.7,19.7h87.6c10.9,0,19.7-8.8,19.7-19.7V46c0-10.9-8.8-19.7-19.7-19.7H33.3z"/>
		</g>
		<path class="st0" d="M35,87.9l0,14.9l0,12.8l0,15.2l0,27.2l0,47l8.6,0l0-47l0-6.1l75.6,52.1l0-46l0-23.2l0-19.1l0-12.8l-36.2,0
			v-4.1c0-2.1,0.2-3.8,0.5-5.2c0.4-1.3,1-2.5,1.8-3.6c0.9-1.1,2-2.1,3.4-3.1c1.5-1,3.3-2.2,5.5-3.6l13.7-9.3c1.8-1.2,3.5-2.3,5-3.5
			c1.5-1.2,2.9-2.5,4-3.8c1.1-1.4,2-3,2.7-4.8c0.7-1.8,1-3.9,1-6.4c0-1.8-0.1-3.2-0.2-4.4c-0.2-1.2-0.6-2.5-1.3-3.7l-0.3-0.5l-6.3,0
			l0.3,1.3c0.1,0.4,0.1,0.7,0.2,1.1c0,0.4,0.1,0.7,0.1,1.1c0,1.5-0.2,2.8-0.6,4c-0.4,1.1-1.1,2.2-1.9,3.2c-0.8,1-1.9,2-3.1,3
			c-1.3,1-2.7,2-4.3,3.1c-4.8,3.2-8.6,5.8-11.4,7.5c-2.9,1.8-5.1,3.2-6.7,4.3c-1.6,1.1-2.8,2-3.5,2.7c-0.5,0.5-0.9,1-1.3,1.5
			c-0.4-2.7-1.2-5.2-2.3-7.3c-1.5-2.8-3.3-5.1-5.6-6.9c-2.2-1.8-4.6-3.1-7.2-3.9c-2.6-0.8-5.1-1.2-7.5-1.2c-2.2,0-4.7,0.4-7.3,1.3
			c-2.6,0.9-5.1,2.4-7.4,4.5c-2.2,2.1-4.2,5-5.7,8.5C35.7,78,35,82.6,35,87.9z M42.1,115.6l32.2,0l0,36.4h7.5l0-36.4l27.3,0l0,19.1
			l0,23.2l0,25.4l-67-46.6L42.1,115.6z M40.8,102.8l0-10.8c0-2.8,0.4-5.4,1.2-7.7c0.8-2.3,1.9-4.2,3.4-5.8c1.4-1.6,3.1-2.8,5.1-3.7
			c2-0.8,4.2-1.3,6.5-1.3c2,0,4,0.4,6,1.2c2,0.8,3.9,1.9,5.5,3.5c1.7,1.5,3,3.5,4,5.7c1,2.2,1.5,4.9,1.5,7.9l0,11.1L40.8,102.8z"/>
	</g>
</g>
</svg>
