<?xml version="1.0" encoding="utf-8"?>
<!-- Generator: Adobe Illustrator 26.3.1, SVG Export Plug-In . SVG Version: 6.00 Build 0)  -->
<svg version="1.1" id="Layer_1" xmlns="http://www.w3.org/2000/svg" xmlns:xlink="http://www.w3.org/1999/xlink" x="0px" y="0px"
	 viewBox="0 0 512 512" style="enable-background:new 0 0 512 512;" xml:space="preserve">
<style type="text/css">
	.st0{display:none;}
	.st1{display:inline;}
	.st2{fill:#B7976E;}
</style>
<g>
	<g>
		<path class="st2" d="M213.1,443.4c-0.7,0-1.5-0.2-2.2-0.6h-0.1h-0.1c-3.9-1.3-6-5.5-4.7-9.4l21.1-63.3c2.2-6.5,8.3-10.9,15.2-10.9
			c0.6,0,1.3,0,1.9,0.1c7.5,0.9,13.4,7,14,14.6l3.2,37.8l4.9-8.3c2.9-4.8,8.1-7.8,13.7-7.8c0.4,0,0.8,0,1.3,0.1
			c6.1,0.5,11.3,4.3,13.6,10L301,421l21.1-25.8l-0.5-0.7c-5.6-7.8-6.1-18.2-1.3-26.5l8.6-16.1l18-48.1l73.4-127.2l-8.4-4.9
			c-3.5-2-4.8-6.6-2.7-10.1c1-1.7,2.6-3,4.5-3.5c0.6-0.2,1.3-0.3,1.9-0.3c1.3,0,2.6,0.3,3.7,1l8.4,4.8l22.3-38.1
			c1.3-2.3,3.8-3.7,6.4-3.7c1.3,0,2.6,0.3,3.7,1l1,0.6l4.9-8.4c3.3-5.7,8.6-9.8,14.9-11.5c2.1-0.6,4.2-0.8,6.4-0.8
			c4.3,0,8.6,1.1,12.3,3.3c5.7,3.3,9.8,8.6,11.5,14.9c1.8,6.4,0.9,13.3-2.5,19l-4.9,8.4l1,0.6c3.5,2.1,4.7,6.6,2.7,10.1l-22,38.1
			l8.4,4.9c5.7,3.3,9.8,8.6,11.5,14.9c1.7,6.3,0.8,13.1-2.5,18.7L468.5,295c-1.4,2.3-3.8,3.8-6.5,3.8l0,0c-1.3,0-2.6-0.3-3.7-1
			c-0.1-0.1-0.2-0.1-0.3-0.2c-3.4-2.3-4.3-6.9-2.1-10.3l34.3-59.5c1.3-2.2,1.6-4.9,1-7.4c-0.7-2.5-2.3-4.6-4.6-5.9l-8.4-4.9
			l-74.1,128.7L371.4,378l-8.6,14.4c-4.4,7.5-12.5,12.1-21.2,12.1h-0.3c-2.2,0-4.3-0.3-6.4-0.8l-0.7-0.2l-20.2,26
			c-1.7,2.2-4,3.8-6.6,4.9c-1.9,0.8-3.9,1.1-5.9,1.1c-6.6,0-12.4-4-14.9-10.1l-6.2-15.6L276,417c-2.6,4.4-7.3,7.3-12.4,7.7
			c-0.5,0-0.9,0.1-1.3,0.1c-8.2,0-15.2-6.4-15.9-14.7l-3-34.8l-2.2-0.3l-21,63.3C219.1,441.4,216.3,443.4,213.1,443.4L213.1,443.4z
			 M333.8,375.4c-2.5,4.4-1.2,9.9,2.9,12.7c1.6,1.1,3.6,1.8,5.6,1.8c0.7,0,1.4-0.1,2.1-0.2c2.7-0.6,5-2.3,6.3-4.6l4.9-8.4l-16.9-9.7
			L333.8,375.4z M344.7,353.1l13.5,7.9l5.1,3l23.7-28.6l-29.3-16.9L344.7,353.1z M363.9,304.8l31.6,18.3l69.7-120.8L433.6,184
			L363.9,304.8z M441,171.2l31.6,18.3l18.3-31.6l-31.6-18.3L441,171.2z M487.3,117.7c-0.8,0-1.6,0.1-2.4,0.3
			c-2.5,0.7-4.7,2.3-5.9,4.6l-4.9,8.4l16.9,9.7l4.9-8.4c1.2-2.3,1.6-4.9,1-7.4c-0.7-2.5-2.3-4.7-4.6-5.9
			C490.7,118.2,489,117.7,487.3,117.7z M103.7,419.2c-4.3,0-8.3-1.6-11.3-4.6l-18.2-18.2c-2.9-3-2.9-7.7,0-10.6
			c1.4-1.4,3.3-2.2,5.2-2.2c2,0,3.8,0.8,5.2,2.2l19,19l31.1-31.1c1.3-1.1,3-1.7,4.8-1.7s3.5,0.6,4.8,1.8c1.5,1.3,2.4,3.1,2.6,5.1
			c0.2,2-0.5,3.9-1.8,5.4l-30.2,30.3C112.1,417.6,108.1,419.2,103.7,419.2L103.7,419.2z"/>
		<path class="st2" d="M106,467.7c-39.5,0-71.7-32.2-71.7-71.7c0-15.4,5.1-30.7,14.3-43c13.7-18.2,34.6-28.7,57.4-28.7
			c15.6,0,30.5,5,43,14.3h0.1c1.6,1.2,2.6,2.9,2.8,4.9c0.3,2-0.2,3.9-1.4,5.5c-1.4,1.9-3.6,3-6,3c-1.6,0-3.2-0.5-4.5-1.5
			c-9.7-7.3-21.8-11.4-34-11.4h0c-31.3,0-56.8,25.5-56.8,56.9s25.5,56.9,56.9,56.9c31.3,0,56.9-25.5,56.9-56.9
			c0-4.1,3.3-7.4,7.4-7.4s7.4,3.3,7.4,7.4C177.7,435.5,145.5,467.7,106,467.7z M187.4,289.1c-4.1,0-7.4-3.3-7.4-7.4s3.3-7.4,7.4-7.4
			h60c4.1,0,7.4,3.3,7.4,7.4s-3.3,7.4-7.4,7.4H187.4z M67.4,289.1c-4.1,0-7.4-3.3-7.4-7.4s3.3-7.4,7.4-7.4h85.7
			c4.1,0,7.4,3.3,7.4,7.4s-3.3,7.4-7.4,7.4H67.4z M273.1,246.3c-4.1,0-7.4-3.3-7.4-7.4c0-4.1,3.3-7.4,7.4-7.4h60
			c4.1,0,7.4,3.3,7.4,7.4c0,4.1-3.3,7.4-7.4,7.4H273.1z M67.4,246.3c-4.1,0-7.4-3.3-7.4-7.4c0-4.1,3.3-7.4,7.4-7.4h171.4
			c4.1,0,7.4,3.3,7.4,7.4c0,4.1-3.3,7.4-7.4,7.4H67.4z M144.5,204.9c-4.1,0-7.4-3.3-7.4-7.4c0-4.1,3.3-7.4,7.4-7.4h188.6
			c4.1,0,7.4,3.3,7.4,7.4c0,4.1-3.3,7.4-7.4,7.4H144.5z M110.2,144.9c-4.1,0-7.4-3.3-7.4-7.4s3.3-7.4,7.4-7.4h171.4
			c4.1,0,7.4,3.3,7.4,7.4s-3.3,7.4-7.4,7.4H110.2z M84.5,110.6c-4.1,0-7.4-3.3-7.4-7.4V68.9c0-4.1,3.3-7.4,7.4-7.4h222.9
			c4.1,0,7.4,3.3,7.4,7.4s-3.3,7.4-7.4,7.4H92v19.4h215.4c4.1,0,7.4,3.3,7.4,7.4s-3.3,7.4-7.4,7.4L84.5,110.6L84.5,110.6z"/>
		<path class="st2" d="M383.6,394.3c-3.7,0.5-6.5,3.9-6.5,7.6v75.5c0,5.4-4.3,9.7-9.7,9.7H24.5c-5.4,0-9.7-4.3-9.7-9.7V102.1
			c0-4.1-3.3-7.4-7.4-7.4l0,0C3.3,94.6,0,98,0,102.1v375.4C0,491,11,502,24.5,502h342.9c13.6,0,24.6-11,24.6-24.6v-75.7
			C392,397.3,388.1,393.8,383.6,394.3z"/>
		<path class="st2" d="M367.4,10H24.5C11,10,0,21,0,34.6v32.5c0,4.1,3.3,7.4,7.4,7.4l0,0c4.1,0,7.4-3.3,7.4-7.4V34.6
			c0-5.4,4.3-9.7,9.7-9.7h342.9c5.4,0,9.7,4.3,9.7,9.7v150.7c0,3.8,2.7,7.1,6.5,7.6c4.5,0.6,8.4-2.9,8.4-7.4v-151
			C392,21,381,10,367.4,10z"/>
	</g>
</g>
</svg>
