<?xml version="1.0" encoding="utf-8"?>
<!-- Generator: Adobe Illustrator 26.3.1, SVG Export Plug-In . SVG Version: 6.00 Build 0)  -->
<svg version="1.1" id="Layer_1" xmlns="http://www.w3.org/2000/svg" xmlns:xlink="http://www.w3.org/1999/xlink" x="0px" y="0px"
	 viewBox="0 0 512 512" style="enable-background:new 0 0 512 512;" xml:space="preserve">
<style type="text/css">
	.st0{display:none;}
	.st1{display:inline;}
	.st2{fill:#B7976E;}
</style>
<g>
	<path class="st2" d="M288.1,214.6c-4.1,0-7.5-3.4-7.5-7.5V102.9c0-4.1,3.4-7.5,7.5-7.5h9.5c0.9,0,1.8,0.2,2.6,0.5l46.1,17.1
		c2.9,1.1,4.9,3.9,4.9,7.1v87c0,4.1-3.4,7.5-7.5,7.5H288.1z M295.7,199.5h40.6v-74.3l-40.6-15.1V199.5z"/>
	<path class="st2" d="M392.2,214.6c-4.1,0-7.5-3.4-7.5-7.5V138c0-2.5,1.2-4.8,3.2-6.2c1.3-0.9,2.8-1.3,4.3-1.3
		c0.9,0,1.8,0.2,2.6,0.5l55.6,20.6c2.9,1.1,4.9,3.9,4.9,7.1v48.5c0,4.1-3.4,7.5-7.5,7.5H392.2z M399.7,199.5h40.6v-35.7l-40.6-15.1
		V199.5z"/>
	<path class="st2" d="M76.6,323.7c-4.1,0-7.5-3.4-7.5-7.5v-56c0-3,1.8-5.8,4.6-6.9l63-26.5c0.9-0.4,1.9-0.6,2.9-0.6h31.6
		c4.1,0,7.5,3.4,7.5,7.5v82.5c0,4.1-3.4,7.5-7.5,7.5H76.6z M84.1,265.1v43.5h79.6v-67.5h-22.6L84.1,265.1z"/>
	<path class="st2" d="M11.9,502.1c-4.1,0-7.5-3.4-7.5-7.5V222.1c0-3,1.8-5.7,4.5-6.9l219.5-91.6v-106c0-2.5,1.2-4.8,3.2-6.2
		c1.3-0.9,2.8-1.3,4.3-1.3c0.9,0,1.8,0.2,2.6,0.5l264.3,97.6c2.9,1.1,4.9,3.9,4.9,7.1v379.4c0,4.1-3.4,7.5-7.5,7.5H11.9z
		 M447.8,428.2c4.1,0,7.5,3.4,7.5,7.5V487h37.2V120.4l-249.2-92l0,278c0,4.1-3.4,7.5-7.5,7.5c-4.1,0-7.5-3.4-7.5-7.5l0-166.4
		L19.4,227v210.7H69v-72.5c0-4.1,3.4-7.5,7.5-7.5h94.6c4.1,0,7.5,3.4,7.5,7.5v72.5h49.6v-95.9c0-4.1,3.4-7.5,7.5-7.5
		s7.5,3.4,7.5,7.5V487h37.2v-51.3c0-4.1,3.4-7.5,7.5-7.5c4.1,0,7.5,3.4,7.5,7.5V487h28.6V391c0-4.1,3.4-7.5,7.5-7.5h72.3
		c4.1,0,7.5,3.4,7.5,7.5V487h28.6v-51.3C440.3,431.5,443.7,428.2,447.8,428.2z M339.4,487h57.3v-88.5h-57.3V487z M19.4,487h208.9
		v-34.3H19.4V487z M84.1,437.7h79.6v-65H84.1V437.7z"/>
	<path class="st2" d="M392.2,345.3c-4.1,0-7.5-3.4-7.5-7.5v-84c0-4.1,3.4-7.5,7.5-7.5h55.6c4.1,0,7.5,3.4,7.5,7.5v84
		c0,4.1-3.4,7.5-7.5,7.5H392.2z M399.7,330.2h40.6v-68.9h-40.6V330.2z"/>
	<path class="st2" d="M288.1,345.3c-4.1,0-7.5-3.4-7.5-7.5v-84c0-4.1,3.4-7.5,7.5-7.5h55.6c4.1,0,7.5,3.4,7.5,7.5v84
		c0,4.1-3.4,7.5-7.5,7.5H288.1z M295.7,330.2h40.6v-68.9h-40.6V330.2z"/>
</g>
</svg>
