<?xml version="1.0" encoding="utf-8"?>
<!-- Generator: Adobe Illustrator 26.3.1, SVG Export Plug-In . SVG Version: 6.00 Build 0)  -->
<svg version="1.1" id="Layer_1" xmlns="http://www.w3.org/2000/svg" xmlns:xlink="http://www.w3.org/1999/xlink" x="0px" y="0px"
	 viewBox="0 0 512 512" style="enable-background:new 0 0 512 512;" xml:space="preserve">
<style type="text/css">
	.st0{display:none;}
	.st1{display:inline;}
	.st2{fill:#B7976E;}
</style>
<g>
	<path class="st2" d="M7.4,501.8c-4.1,0-7.4-3.3-7.4-7.4v-34.5c0-4.1,3.3-7.4,7.4-7.4H16v-127c0-4.1,3.3-7.4,7.4-7.4h17.1V170.8H7.4
		c-4.1,0-7.4-3.3-7.4-7.4v-32c0-4.1,3.3-7.4,7.4-7.4h129.7V70.1l-26-5c-3.5-0.7-6-3.7-6-7.3v-40c0-0.5,0-1,0.1-1.4
		c0.7-3.5,3.7-6,7.3-6c0.5,0,1,0,1.4,0.1l384,79.7c3.5,0.7,6,3.8,6,7.3v156.4l0.6,0c4.1,0,7.4,3.3,7.4,7.4v32c0,4.1-3.3,7.4-7.4,7.4
		H500v151.6h4.6c4.1,0,7.4,3.3,7.4,7.4v34.5c0,4.1-3.3,7.4-7.4,7.4H7.4z M14.9,486.9h482.3v-19.6H14.9V486.9z M468,452.4h17.1V300.8
		H468V452.4z M292,452.4h161.1v-23.6H292V452.4z M260,452.4h17.1V300.8H260V452.4z M55.4,317.9h165.1c4.1,0,7.4,3.3,7.4,7.4v127
		h17.1V300.8H80.6c-4.1,0-7.4-3.3-7.4-7.4v-32c0-4.1,3.3-7.4,7.4-7.4h56.6v-83.1H55.4V317.9z M136,452.4h77.1V332.8H30.9v119.6h26.3
		v-71.6h-0.6c-4.1,0-7.4-3.3-7.4-7.4s3.3-7.4,7.4-7.4h80c4.1,0,7.4,3.3,7.4,7.4s-3.3,7.4-7.4,7.4H136V452.4z M72,452.4h49.1v-71.6
		H72V452.4z M292,413.9h161.1v-17.1H292V413.9z M292,381.9h161.1v-17.1H292V381.9z M292,349.9h161.1v-17.1H292V349.9z M292,317.9
		h161.1v-17.1H292V317.9z M88,285.9h409.1v-17.1H88V285.9z M152,253.9h305.1V131.5L152,73V253.9z M120,51.7l346,66.4
		c3.5,0.7,6,3.7,6,7.3v128.6h17.1V103.6L120,26.9V51.7z M14.9,155.9h122.3v-17.1H14.9V155.9z"/>
	<path class="st2" d="M176.6,217.3c-4.1,0-7.4-3.3-7.4-7.4v-56c0-4.1,3.3-7.4,7.4-7.4h168c4.1,0,7.4,3.3,7.4,7.4v56
		c0,4.1-3.3,7.4-7.4,7.4H176.6z M296,202.4h41.1v-41.1H296V202.4z M240,202.4h41.1v-41.1H240V202.4z M184,202.4h41.1v-41.1H184
		V202.4z"/>
</g>
</svg>
