<?xml version="1.0" encoding="utf-8"?>
<!-- Generator: Adobe Illustrator 26.3.1, SVG Export Plug-In . SVG Version: 6.00 Build 0)  -->
<svg version="1.1" id="Layer_1" xmlns="http://www.w3.org/2000/svg" xmlns:xlink="http://www.w3.org/1999/xlink" x="0px" y="0px"
	 viewBox="0 0 512 512" style="enable-background:new 0 0 512 512;" xml:space="preserve">
<style type="text/css">
	.st0{display:none;}
	.st1{display:inline;}
	.st2{fill:#B7976E;}
</style>
<g>
	<path class="st2" d="M494.4,151.5h-4.9L443.7,28.1c-4-10.8-14.4-18.1-26-18.1H94.3c-11.5,0-22,7.3-26,18.1L22.5,151.5h-4.9
		c-9.7,0-17.6,7.9-17.6,17.6v14.1c0,9.7,7.9,17.6,17.6,17.6h2.6v180.6c0,4.1,3.4,7.5,7.5,7.5s7.5-3.4,7.5-7.5V200.9H153
		c6.6,0,12.8-2.6,17.4-7.2L256,108l85.6,85.6c4.6,4.6,10.9,7.2,17.4,7.2h117.8v36.1c0,4.1,3.4,7.5,7.5,7.5s7.5-3.4,7.5-7.5v-36.1
		h2.6c9.7,0,17.6-7.9,17.6-17.6v-14.1C512,159.4,504.1,151.5,494.4,151.5L494.4,151.5z M82.4,33.4c1.8-5,6.6-8.3,11.9-8.3h323.4
		c5.3,0,10.1,3.3,11.9,8.3l43.9,118.1H369.3l-95.8-95.8c-4.7-4.7-10.9-7.2-17.4-7.2s-12.8,2.6-17.4,7.2l-95.8,95.8H38.5L82.4,33.4z
		 M497,183.3c0,1.4-1.2,2.6-2.6,2.6H359c-2.6,0-5-1-6.8-2.8l-90.9-90.9c-2.9-2.9-7.7-2.9-10.6,0c0,0,0,0,0,0L159.8,183
		c-1.8,1.8-4.3,2.8-6.8,2.8H17.6c-1.4,0-2.6-1.2-2.6-2.6v-14.1c0-1.4,1.2-2.6,2.6-2.6h128.2c2,0,3.9-0.8,5.3-2.2l98-98
		c1.8-1.8,4.3-2.8,6.8-2.8s5,1,6.8,2.8l98,98c1.4,1.4,3.3,2.2,5.3,2.2h128.2c1.4,0,2.6,1.2,2.6,2.6L497,183.3L497,183.3z"/>
	<path class="st2" d="M451,425.1c4.1,0,7.5-3.4,7.5-7.5V284.3c0-4.1-3.4-7.5-7.5-7.5h-101c-4.1,0-7.5,3.4-7.5,7.5v133.3
		c0,4.1,3.4,7.5,7.5,7.5H451z M443.5,377.8H408v-35.5h35.5V377.8z M393,377.8h-35.5v-35.5H393V377.8z M443.5,410.1h-86v-17.3h86
		V410.1z M443.5,327.3H408v-35.5h35.5V327.3z M393,291.8v35.5h-35.5v-35.5H393z M162.1,425.1c4.1,0,7.5-3.4,7.5-7.5V284.3
		c0-4.1-3.4-7.5-7.5-7.5H61c-4.1,0-7.5,3.4-7.5,7.5v133.3c0,4.1,3.4,7.5,7.5,7.5H162.1z M154.6,377.8H119v-35.5h35.5V377.8z
		 M104,377.8H68.5v-35.5H104V377.8z M154.6,410.1h-86v-17.3h86V410.1z M154.6,327.3H119v-35.5h35.5V327.3z M104,291.8v35.5H68.5
		v-35.5H104z M280.2,309.1h-48.5c-4.1,0-7.5,3.4-7.5,7.5v32.3c0,4.1,3.4,7.5,7.5,7.5l0,0h48.5c4.1,0,7.5-3.4,7.5-7.5l0,0v-32.3
		C287.7,312.5,284.4,309.1,280.2,309.1z M272.7,341.4h-33.5v-17.3h33.5V341.4z M295.8,204.6c0-22-17.9-39.8-39.8-39.8
		s-39.8,17.9-39.8,39.8s17.9,39.8,39.8,39.8S295.8,226.5,295.8,204.6z M231.2,204.6c0-13.7,11.1-24.8,24.8-24.8s24.8,11.1,24.8,24.8
		s-11.1,24.8-24.8,24.8S231.2,218.3,231.2,204.6L231.2,204.6z"/>
	<path class="st2" d="M504.5,452.7h-12.7V272c0-4.1-3.4-7.5-7.5-7.5s-7.5,3.4-7.5,7.5v180.7H320.1V264.3c0-4.1-3.4-7.5-7.5-7.5
		H199.4c-4.1,0-7.5,3.4-7.5,7.5v188.5H35.2v-36.2c0-4.1-3.4-7.5-7.5-7.5s-7.5,3.4-7.5,7.5v36.2H7.5c-4.1,0-7.5,3.4-7.5,7.5l0,0v34.3
		c0,4.1,3.4,7.5,7.5,7.5h497c4.1,0,7.5-3.4,7.5-7.5v-34.3C512,456.1,508.6,452.7,504.5,452.7L504.5,452.7z M206.9,381.7h10.7
		c4.1,0,7.5-3.4,7.5-7.5s-3.4-7.5-7.5-7.5h-10.7v-94.9h98.1v181h-98.1V381.7z M497,487.1H15v-19.3h482V487.1z"/>
</g>
</svg>
