<?xml version="1.0" encoding="utf-8"?>
<!-- Generator: Adobe Illustrator 26.3.1, SVG Export Plug-In . SVG Version: 6.00 Build 0)  -->
<svg version="1.1"
	 id="a" xmlns:sodipodi="http://sodipodi.sourceforge.net/DTD/sodipodi-0.dtd" xmlns:svg="http://www.w3.org/2000/svg" sodipodi:docname="logo.svg" xmlns:inkscape="http://www.inkscape.org/namespaces/inkscape"
	 xmlns="http://www.w3.org/2000/svg" xmlns:xlink="http://www.w3.org/1999/xlink" x="0px" y="0px" viewBox="0 0 223 61"
	 style="enable-background:new 0 0 223 61;" xml:space="preserve">
<style type="text/css">
	.st0{fill:#EF6B00;}
	.st1{fill:#FFFFFF;}
</style>
<sodipodi:namedview  bordercolor="#000000" borderopacity="0.25" id="namedview36" inkscape:current-layer="a" inkscape:cx="125.72195" inkscape:cy="4.5243449" inkscape:deskcolor="#d1d1d1" inkscape:pagecheckerboard="0" inkscape:pageopacity="0.0" inkscape:showpageshadow="2" inkscape:window-height="961" inkscape:window-maximized="1" inkscape:window-width="1280" inkscape:window-x="-8" inkscape:window-y="-8" inkscape:zoom="3.6469368" pagecolor="#ffffff">
	</sodipodi:namedview>
<path id="path1" class="st0" d="M42.7,42.5c3.2-7.4,1.2-16.4-5.2-21.7c-3.3-2.8-7.2-4.4-11.5-4.5c-4-0.2-7.8,0.8-11.3,3.2
	c-2.8,2-4.8,4.4-7.2,6.7c1-4.2,2.1-6.9,4.2-9.7c8.3-6.2,20.5-5.7,28.6,1.3c4.9,4.3,7.8,10.3,8,16.7c0.2,7.8-3.3,14.7-8.6,18.9
	c-2.5,0.7-4.8,1.2-7.3,1.5C36.1,51.2,40.4,47.6,42.7,42.5z"/>
<path id="path2" class="st0" d="M53,20.5c3.8,7.8,2.9,17.3-2.2,24.2c2.8-7.8,2.2-16.5-2.3-23.8C43.1,12,33.2,7.2,23.2,7.9
	C28.8,6,34.9,6.2,40.4,8.4C46,10.6,50.4,15,53,20.5L53,20.5z"/>
<path id="path3" class="st0" d="M38.2,28.2c1.6,2.9,2,6.1,1.5,9.3c-0.4,2.8-1.5,5.4-3.5,7.5c-3.2,3.3-6.2,6.2-9.4,9.4
	c-1.5-0.5-3.2-0.7-4.6-1.4c3.8-3.9,7.7-7.4,11.4-11.5c1.7-2.1,2.4-4.8,2.2-7.4c-0.4-2.6-1.5-5-3.4-6.8c-3.1-2.8-7.6-3.5-11.4-1.8
	c-1,0.5-1.9,1-2.7,1.8c-3.4,3.4-6.7,6.7-10.1,10c-0.3-0.7-0.9-3.5-0.9-5c3.1-3.1,5.7-6.2,9.3-9c3.7-3,8.7-3.8,13.2-2.4
	C33.3,22.3,36.3,24.7,38.2,28.2L38.2,28.2z"/>
<path id="path4" class="st0" d="M27.8,41.4c-3.4,3.2-6.4,6.4-9.6,9.6c-1.2-0.6-2.3-1.5-3.3-2.4c3.9-4.3,8.3-8,12.1-12.4
	c0.5-0.5,0.4-1.5-0.1-2.1c-0.6-1-2.1-1.4-2.9-0.5c-4.3,3.9-8.1,7.9-12.1,11.9c-0.7-0.7-1.7-2.4-2.2-3.6c6.3-6.1,9.8-9.8,11.5-11.4
	c2-2,6.2-1.6,8.2,0.2c1.7,1.6,2.2,3.3,2,5.4C31.3,38.2,29.5,39.8,27.8,41.4L27.8,41.4z"/>
<path id="path5" class="st1" d="M66.7,24h3.7v5.5l5.1-5.5h4.5L73.4,31l6.6,7.5h-4.9l-4.3-5.2l-0.4,0.5v4.7h-3.7V24L66.7,24z"/>
<path id="path6" class="st1" d="M85.1,24v1.6c0.7-0.7,1.4-1.2,2.2-1.5c0.8-0.3,1.6-0.5,2.5-0.5c1.9,0,3.5,0.7,4.8,2.2s2,3.3,2,5.5
	s-0.7,4-2.1,5.4c-1.4,1.5-3,2.2-4.9,2.2c-0.8,0-1.6-0.2-2.3-0.5c-0.7-0.3-1.4-0.8-2.2-1.5v6.9h-3.6V24H85.1L85.1,24z M88.9,27
	c-1.2,0-2.1,0.4-2.9,1.2c-0.8,0.8-1.1,1.8-1.1,3.1c0,1.3,0.4,2.3,1.1,3.1c0.8,0.8,1.7,1.2,2.9,1.2s2.1-0.4,2.8-1.2s1.2-1.8,1.2-3.1
	s-0.4-2.3-1.1-3.1S90.1,27,88.9,27L88.9,27z"/>
<path id="path7" class="st1" d="M101.5,38.5h-1.9V24h3.6v8.6l7.4-8.6h1.8v14.6h-3.6v-8.4L101.5,38.5z"/>
<path id="path8" class="st1" d="M119.7,38.5H116V24h12.8v14.6h-3.7V27.5h-5.4L119.7,38.5z"/>
<path id="path9" class="st1" d="M131.2,24h13.6v3.5h-4.8v11.1h-3.7V27.4h-5.1L131.2,24L131.2,24z"/>
<path id="path10" class="st1" d="M154,23.6c1.4,0,2.7,0.3,3.9,1s2.1,1.6,2.8,2.8c0.7,1.2,1,2.5,1,3.8s-0.3,2.7-1,3.9
	c-0.7,1.2-1.6,2.1-2.8,2.8c-1.2,0.7-2.5,1-3.9,1c-2.1,0-3.9-0.7-5.4-2.2c-1.5-1.5-2.2-3.3-2.2-5.4c0-2.3,0.8-4.2,2.5-5.7
	C150.4,24.3,152.1,23.6,154,23.6L154,23.6z M154.1,27c-1.1,0-2.1,0.4-2.8,1.2c-0.8,0.8-1.1,1.8-1.1,3c0,1.2,0.4,2.3,1.1,3.1
	c0.7,0.8,1.7,1.2,2.8,1.2s2.1-0.4,2.9-1.2c0.8-0.8,1.1-1.8,1.1-3.1c0-1.2-0.4-2.3-1.1-3C156.2,27.4,155.2,27.1,154.1,27L154.1,27z"
	/>
<path id="path11" class="st0" d="M164.8,24h3.7v5.5l5.1-5.5h4.5l-6.5,7.1l6.6,7.5h-4.9l-4.3-5.2l-0.4,0.5v4.7h-3.7L164.8,24
	L164.8,24z"/>
<path id="path12" class="st0" d="M186.3,23.6c1.4,0,2.7,0.3,3.9,1c1.2,0.7,2.1,1.6,2.8,2.8c0.7,1.2,1,2.5,1,3.8s-0.3,2.7-1,3.9
	c-0.7,1.2-1.6,2.1-2.8,2.8c-1.2,0.7-2.5,1-3.9,1c-2.1,0-3.9-0.7-5.4-2.2c-1.5-1.5-2.2-3.3-2.2-5.4c0-2.3,0.8-4.2,2.5-5.7
	C182.7,24.3,184.4,23.6,186.3,23.6L186.3,23.6z M186.4,27c-1.1,0-2.1,0.4-2.8,1.2c-0.8,0.8-1.1,1.8-1.1,3c0,1.2,0.4,2.3,1.1,3.1
	c0.7,0.8,1.7,1.2,2.8,1.2s2.1-0.4,2.9-1.2c0.8-0.8,1.1-1.8,1.1-3.1c0-1.2-0.4-2.3-1.1-3C188.5,27.4,187.5,27.1,186.4,27L186.4,27z"
	/>
<path id="path13" class="st0" d="M206,33.2l4.5-9.2h2.4l3.6,14.6h-3.6L211,30l-4.4,8.5h-1.5l-4.2-8.5l-2,8.5h-3.6L199,24h2.4
	L206,33.2L206,33.2z"/>
<path id="path14" class="st1" d="M95.7,49.7l0.6,0.1c-0.1,0.4-0.2,0.7-0.5,0.9c-0.3,0.2-0.6,0.3-1,0.3c-0.5,0-0.9-0.2-1.2-0.5
	s-0.4-0.8-0.4-1.3c0-0.4,0.1-0.7,0.2-1c0.1-0.3,0.3-0.5,0.6-0.6c0.3-0.1,0.5-0.2,0.8-0.2c0.4,0,0.7,0.1,0.9,0.3
	c0.2,0.2,0.4,0.5,0.5,0.8l-0.6,0.1c-0.1-0.2-0.2-0.4-0.3-0.5s-0.3-0.2-0.5-0.2c-0.3,0-0.5,0.1-0.7,0.3s-0.3,0.5-0.3,1s0.1,0.8,0.3,1
	s0.4,0.3,0.7,0.3c0.2,0,0.4-0.1,0.6-0.2C95.6,50.2,95.7,50,95.7,49.7z"/>
<path id="path15" class="st1" d="M96.8,47.5h0.6v2.7l1.6-2.7h0.6v3.5h-0.6v-2.6l-1.6,2.6h-0.6V47.5z"/>
<path id="path16" class="st1" d="M102.9,49.7l0.6,0.1c-0.1,0.4-0.2,0.7-0.5,0.9c-0.3,0.2-0.6,0.3-1,0.3c-0.5,0-0.9-0.2-1.2-0.5
	s-0.4-0.8-0.4-1.3c0-0.4,0.1-0.7,0.2-1c0.1-0.3,0.3-0.5,0.6-0.6c0.3-0.1,0.5-0.2,0.8-0.2c0.4,0,0.7,0.1,0.9,0.3
	c0.2,0.2,0.4,0.5,0.5,0.8l-0.6,0.1c-0.1-0.2-0.2-0.4-0.3-0.5s-0.3-0.2-0.5-0.2c-0.3,0-0.5,0.1-0.7,0.3s-0.3,0.5-0.3,1s0.1,0.8,0.3,1
	s0.4,0.3,0.7,0.3c0.2,0,0.4-0.1,0.6-0.2C102.7,50.2,102.8,50,102.9,49.7z"/>
<path id="path17" class="st1" d="M103.7,47.5h2.8v0.5h-1.1v3h-0.6v-3h-1.1L103.7,47.5L103.7,47.5z"/>
<path id="path18" class="st1" d="M109.4,49.8l0.6,0.1c-0.1,0.4-0.3,0.6-0.5,0.8c-0.3,0.2-0.6,0.3-1,0.3c-0.5,0-0.9-0.2-1.2-0.5
	c-0.3-0.3-0.4-0.8-0.4-1.3s0.2-1,0.4-1.4c0.3-0.3,0.7-0.5,1.2-0.5s0.8,0.2,1.1,0.5c0.3,0.3,0.4,0.8,0.4,1.3c0,0,0,0.1,0,0.2h-2.6
	c0,0.4,0.1,0.7,0.3,0.9c0.2,0.2,0.4,0.3,0.7,0.3c0.2,0,0.4-0.1,0.6-0.2C109.2,50.3,109.3,50.1,109.4,49.8L109.4,49.8z M107.4,48.9
	h1.9c0-0.3-0.1-0.5-0.2-0.7c-0.2-0.2-0.4-0.3-0.7-0.3c-0.3,0-0.5,0.1-0.7,0.3S107.4,48.6,107.4,48.9z"/>
<path id="path19" class="st1" d="M110.7,47.5h0.9l0.9,2.8l1-2.8h0.8v3.5h-0.6v-2.8l-1,2.8h-0.5l-1-2.9v2.9h-0.6L110.7,47.5z"/>
<path id="path20" class="st1" d="M115.3,47.5h0.6v1.4h0.8c0.5,0,0.9,0.1,1.1,0.3s0.4,0.5,0.4,0.8c0,0.3-0.1,0.5-0.3,0.8
	s-0.6,0.3-1.1,0.3h-1.5L115.3,47.5L115.3,47.5z M115.9,50.5h0.6c0.4,0,0.6,0,0.8-0.1s0.2-0.2,0.2-0.4c0-0.2-0.1-0.3-0.2-0.4
	c-0.1-0.1-0.4-0.2-0.8-0.2h-0.7L115.9,50.5z M118.6,47.5h0.6v3.5h-0.6V47.5z"/>
<path id="path21" class="st1" d="M122.5,49.4v-0.5c0.2,0,0.4,0,0.5,0c0.1,0,0.2-0.1,0.3-0.2s0.1-0.2,0.1-0.3c0-0.2-0.1-0.3-0.2-0.4
	c-0.1-0.1-0.2-0.1-0.4-0.1c-0.3,0-0.6,0.2-0.7,0.6l-0.6-0.1c0.2-0.7,0.6-1,1.3-1c0.4,0,0.7,0.1,0.9,0.3c0.2,0.2,0.3,0.5,0.3,0.7
	s-0.1,0.5-0.4,0.7c0.2,0.1,0.3,0.2,0.4,0.4c0.1,0.2,0.1,0.3,0.1,0.5c0,0.3-0.1,0.6-0.3,0.8c-0.2,0.2-0.6,0.3-1,0.3
	c-0.8,0-1.3-0.3-1.4-1.1l0.6-0.1c0.1,0.2,0.2,0.4,0.3,0.5c0.2,0.1,0.3,0.2,0.5,0.2s0.4-0.1,0.5-0.2c0.1-0.1,0.2-0.3,0.2-0.4
	c0-0.1,0-0.2-0.1-0.4c-0.1-0.1-0.2-0.2-0.3-0.2c-0.1,0-0.3,0-0.5,0C122.6,49.4,122.6,49.4,122.5,49.4L122.5,49.4z"/>
<path id="path22" class="st1" d="M127.1,50.5c-0.2,0.2-0.4,0.3-0.6,0.4c-0.2,0.1-0.4,0.1-0.7,0.1c-0.4,0-0.7-0.1-0.9-0.3
	c-0.2-0.2-0.3-0.4-0.3-0.7c0-0.2,0-0.3,0.1-0.5s0.2-0.2,0.3-0.3s0.3-0.2,0.4-0.2c0.1,0,0.3-0.1,0.5-0.1c0.5-0.1,0.8-0.1,1.1-0.2
	c0-0.1,0-0.1,0-0.2c0-0.2-0.1-0.4-0.2-0.5c-0.2-0.1-0.4-0.2-0.7-0.2c-0.3,0-0.5,0-0.6,0.2c-0.1,0.1-0.2,0.3-0.3,0.5l-0.6-0.1
	c0.1-0.2,0.1-0.5,0.3-0.6c0.1-0.2,0.3-0.3,0.5-0.3c0.2-0.1,0.5-0.1,0.8-0.1s0.5,0,0.7,0.1s0.3,0.2,0.4,0.3c0.1,0.1,0.2,0.2,0.2,0.4
	c0,0.1,0,0.3,0,0.5v0.8c0,0.5,0,0.9,0,1c0,0.2,0.1,0.3,0.2,0.4h-0.6C127.2,50.8,127.1,50.7,127.1,50.5L127.1,50.5z M127,49.2
	c-0.2,0.1-0.5,0.2-1,0.2c-0.2,0-0.4,0.1-0.5,0.1c-0.1,0-0.2,0.1-0.2,0.2c-0.1,0.1-0.1,0.2-0.1,0.3c0,0.2,0.1,0.3,0.2,0.4
	c0.1,0.1,0.3,0.2,0.5,0.2c0.2,0,0.4,0,0.6-0.2c0.2-0.1,0.3-0.2,0.4-0.4c0.1-0.1,0.1-0.3,0.1-0.6L127,49.2L127,49.2z"/>
<path id="path23" class="st1" d="M128.5,47.5h0.6v3h1.4v-3h0.6v3h1.4v-3h0.6v3h0.4v1.5h-0.5v-1h-4.4V47.5L128.5,47.5z"/>
<path id="path24" class="st1" d="M134,47.5h0.6v2.7l1.6-2.7h0.6v3.5h-0.6v-2.6l-1.6,2.6H134V47.5z"/>
<path id="path25" class="st1" d="M137.4,47.5h2.8v0.5h-1.1v3h-0.6v-3h-1.1L137.4,47.5L137.4,47.5z"/>
<path id="path26" class="st1" d="M140.8,47.5h0.6v1.4h0.8c0.5,0,0.9,0.1,1.1,0.3s0.4,0.5,0.4,0.8c0,0.3-0.1,0.5-0.3,0.8
	s-0.6,0.3-1.1,0.3h-1.5V47.5L140.8,47.5z M141.3,50.5h0.6c0.4,0,0.6,0,0.8-0.1s0.2-0.2,0.2-0.4c0-0.2-0.1-0.3-0.2-0.4
	c-0.1-0.1-0.4-0.2-0.8-0.2h-0.7L141.3,50.5L141.3,50.5z M144.1,47.5h0.6v3.5h-0.6V47.5z"/>
<path id="path27" class="st1" d="M147.2,47.5h0.6v2.7l1.6-2.7h0.6v3.5h-0.6v-2.6l-1.6,2.6h-0.6V47.5z"/>
<path id="path28" class="st1" d="M150.9,47.5h0.6v1.5h1.6v-1.5h0.6v3.5h-0.6v-1.5h-1.6v1.5h-0.6V47.5z"/>
<path id="path29" class="st1" d="M156.6,46.1h0.6v1.7c0.1-0.1,0.3-0.2,0.4-0.3c0.1-0.1,0.3-0.1,0.5-0.1c0.4,0,0.7,0.2,1,0.5
	c0.2,0.3,0.4,0.8,0.4,1.3s-0.1,1-0.4,1.3c-0.3,0.3-0.6,0.5-1,0.5c-0.1,0-0.3,0-0.4-0.1s-0.3-0.2-0.5-0.3v1.6h-0.6v-1.6
	c-0.1,0.1-0.2,0.2-0.4,0.3c-0.1,0.1-0.3,0.1-0.5,0.1c-0.4,0-0.7-0.2-1-0.5s-0.4-0.8-0.4-1.4c0-0.5,0.1-0.9,0.4-1.3s0.6-0.5,1-0.5
	c0.2,0,0.3,0,0.5,0.1c0.1,0.1,0.3,0.2,0.4,0.3L156.6,46.1L156.6,46.1z M155,49.1c0,0.5,0.1,0.8,0.2,1.1c0.2,0.2,0.4,0.3,0.6,0.3
	s0.4-0.1,0.6-0.3c0.1-0.2,0.2-0.5,0.2-1c0-0.5-0.1-0.8-0.2-1c-0.1-0.2-0.3-0.3-0.6-0.3c-0.2,0-0.4,0.1-0.6,0.3
	C155.1,48.4,155,48.7,155,49.1L155,49.1z M157.2,49.2c0,0.5,0.1,0.9,0.2,1.1c0.1,0.2,0.3,0.3,0.5,0.3c0.2,0,0.4-0.1,0.6-0.3
	s0.2-0.6,0.2-1c0-0.4-0.1-0.8-0.2-1c-0.2-0.2-0.4-0.3-0.6-0.3c-0.3,0-0.5,0.1-0.6,0.3C157.3,48.4,157.2,48.8,157.2,49.2L157.2,49.2z
	"/>
<path id="path30" class="st1" d="M159.9,49.2c0-0.7,0.2-1.1,0.5-1.4c0.3-0.3,0.7-0.4,1.1-0.4c0.5,0,0.9,0.2,1.2,0.5
	c0.3,0.3,0.5,0.8,0.5,1.3c0,0.5-0.1,0.8-0.2,1.1c-0.1,0.3-0.3,0.5-0.6,0.6s-0.5,0.2-0.8,0.2c-0.5,0-0.9-0.2-1.2-0.5
	C160.1,50.2,160,49.8,159.9,49.2L159.9,49.2z M160.6,49.2c0,0.5,0.1,0.8,0.3,1c0.2,0.2,0.4,0.3,0.7,0.3s0.5-0.1,0.7-0.3
	c0.2-0.2,0.3-0.6,0.3-1c0-0.4-0.1-0.8-0.3-1c-0.2-0.2-0.4-0.3-0.7-0.3s-0.5,0.1-0.7,0.3C160.6,48.4,160.6,48.8,160.6,49.2
	L160.6,49.2z"/>
<path id="path31" class="st1" d="M163.9,52.3v-4.8h0.5v0.5c0.1-0.2,0.3-0.3,0.4-0.4c0.2-0.1,0.4-0.1,0.6-0.1c0.3,0,0.6,0.1,0.8,0.2
	c0.2,0.2,0.4,0.4,0.5,0.7c0.1,0.3,0.2,0.6,0.2,0.9c0,0.4-0.1,0.7-0.2,1s-0.3,0.5-0.6,0.7c-0.2,0.2-0.5,0.2-0.8,0.2
	c-0.2,0-0.4,0-0.5-0.1c-0.2-0.1-0.3-0.2-0.4-0.3v1.7L163.9,52.3z M164.4,49.2c0,0.5,0.1,0.8,0.3,1c0.2,0.2,0.4,0.3,0.7,0.3
	c0.3,0,0.5-0.1,0.7-0.3c0.2-0.2,0.3-0.6,0.3-1s-0.1-0.8-0.3-1c-0.2-0.2-0.4-0.3-0.7-0.3c-0.3,0-0.5,0.1-0.7,0.3
	C164.5,48.4,164.4,48.8,164.4,49.2L164.4,49.2z"/>
<path id="path32" class="st1" d="M167.6,47.5h0.9l0.9,2.8l1-2.8h0.9v3.5h-0.6v-2.8l-1,2.8h-0.5l-1-2.9v2.9h-0.6L167.6,47.5z"/>
<path id="path33" class="st1" d="M174.4,50.5c-0.2,0.2-0.4,0.3-0.6,0.4c-0.2,0.1-0.4,0.1-0.6,0.1c-0.4,0-0.7-0.1-0.9-0.3
	c-0.2-0.2-0.3-0.4-0.3-0.7c0-0.2,0-0.3,0.1-0.5s0.2-0.2,0.3-0.3s0.3-0.2,0.4-0.2c0.1,0,0.3-0.1,0.5-0.1c0.5-0.1,0.8-0.1,1.1-0.2
	c0-0.1,0-0.1,0-0.2c0-0.2-0.1-0.4-0.2-0.5c-0.1-0.1-0.4-0.2-0.7-0.2c-0.3,0-0.5,0-0.6,0.2c-0.1,0.1-0.2,0.3-0.3,0.5l-0.6-0.1
	c0.1-0.2,0.1-0.5,0.3-0.6c0.1-0.2,0.3-0.3,0.5-0.3c0.2-0.1,0.5-0.1,0.8-0.1c0.3,0,0.5,0,0.7,0.1s0.3,0.2,0.4,0.3
	c0.1,0.1,0.1,0.2,0.2,0.4c0,0.1,0,0.3,0,0.5v0.8c0,0.5,0,0.9,0,1c0,0.2,0.1,0.3,0.1,0.4h-0.6C174.5,50.8,174.5,50.7,174.4,50.5
	L174.4,50.5z M174.4,49.2c-0.2,0.1-0.5,0.2-1,0.2c-0.2,0-0.4,0.1-0.5,0.1c-0.1,0-0.2,0.1-0.2,0.2c-0.1,0.1-0.1,0.2-0.1,0.3
	c0,0.2,0.1,0.3,0.2,0.4c0.1,0.1,0.3,0.2,0.5,0.2c0.2,0,0.4,0,0.6-0.2c0.2-0.1,0.3-0.2,0.4-0.4c0.1-0.1,0.1-0.3,0.1-0.6V49.2
	L174.4,49.2z"/>
<path id="path34" class="st1" d="M175.9,47.5h0.6v3h1.6v-3h0.6v3h0.4v1.5h-0.5v-1h-2.7L175.9,47.5L175.9,47.5z"/>
<path id="path35" class="st1" d="M179.7,47.5h0.6v2.7l1.6-2.7h0.6v3.5h-0.6v-2.6l-1.6,2.6h-0.6V47.5z"/>
<path id="path36" class="st1" d="M183.4,47.5h0.6v2.7l1.6-2.7h0.6v3.5h-0.6v-2.6l-1.6,2.6h-0.6V47.5z"/>
</svg>
