<?xml version="1.0" encoding="utf-8"?>
<!-- Generator: Adobe Illustrator 26.3.1, SVG Export Plug-In . SVG Version: 6.00 Build 0)  -->
<svg version="1.1" id="Layer_1" xmlns="http://www.w3.org/2000/svg" xmlns:xlink="http://www.w3.org/1999/xlink" x="0px" y="0px"
	 viewBox="0 0 1829.8 631.6" style="enable-background:new 0 0 1829.8 631.6;" xml:space="preserve">
<style type="text/css">
	.st0{fill:#FEFEFE;}
</style>
<path class="st0" d="M463.2,35.2c-9.5,2.4-18.5,5.2-27.3,8.8c-30,12.1-57,29.3-82.6,48.9c-40.4,31.1-76.2,67-108.3,106.5
	c-39.4,48.5-76.3,98.8-110.6,151.1C109,389,92.1,430.9,84.5,476.5c-0.7,4.2-2,8.4-2.3,12.6c-0.3,3.5-2.2,3.4-4.5,3
	c-13-2.1-24-8-32.8-17.9c-12.5-13.9-18.1-30.8-21.3-48.7C20,405.1,20.4,384.6,22,364c0.3-4.1,2.7-7.5,4.3-11.1
	c27.6-60.6,63-116.3,106-167.2c55.8-66,121.5-120,197.7-161.1c14.7-7.9,29.6-15.4,44.9-22c9.2-4,18.9-3,28.2-0.8
	C425.5,7.2,445,18.1,462,33.7C462.3,34,462.6,34.5,463.2,35.2z"/>
<path class="st0" d="M1522.1,274.1c0,25.5,0,51,0.1,76.5c0,2.8-0.6,4-3.5,4.9c-20,6.2-40.3,10.4-61,13.3
	c-16.7,2.3-33.6,2.9-50.3,2.2c-31.5-1.3-62.1-6.9-89.5-23.9c-30.2-18.7-48.6-46.2-56.7-80.2c-9.1-38.3-6.9-76,10.4-111.9
	c16.9-35.1,45.3-57.3,81.3-70.5c19.5-7.2,39.7-10.8,60.4-11.8c28.7-1.5,57,0.6,84.8,8.5c4.6,1.3,10.6,1.9,13.1,5.4
	c2.5,3.4-1.2,8.7-2.3,13.1c-3.8,15.5-7.9,31-11.5,46.6c-0.7,3.1-1.8,2.7-3.8,1.9c-24.7-10.2-50.6-12-76.8-10.6
	c-17.4,0.9-33.7,5.9-48,16.5c-14.6,10.9-23.6,25.5-27.4,43.2c-5.1,23.7-3.9,46.9,7,68.8c11.6,23.4,31.2,36.3,56.6,40.9
	c12.5,2.3,24.9,1.7,37.3,0c2.8-0.4,4.3-1.2,4.2-4.6c-0.2-14.5-0.2-29,0-43.4c0-3-0.9-3.7-3.7-3.7c-10.6,0.2-21.2,0-31.8,0.1
	c-2.7,0-3.5-0.6-3.5-3.4c0.1-18,0.1-35.9,0-53.9c0-2.8,0.6-3.8,3.6-3.8c35.8,0.1,71.6,0.1,107.4,0c3.4,0,3.8,1.1,3.7,4
	C1522,223.4,1522.1,248.8,1522.1,274.1z"/>
<path class="st0" d="M836.1,69.4c32.3,0,60.4,3.1,87.6,12.6c3.5,1.2,4.7,2.3,3.5,6.4c-5.3,18.5-10.2,37.2-15.2,55.8
	c-0.6,2.4-1.5,3-4,2c-23.8-9.2-48.5-13.3-74-12.9c-12.2,0.2-24.3,1.8-35.4,7.4c-4.3,2.2-8,5.1-10.1,9.5c-2.8,5.8-0.3,12.4,6.5,17
	c10.3,6.9,22.2,10.3,33.8,14.2c20.2,6.8,41,12.1,60.2,21.6c15.7,7.8,30.2,17,40.9,31.3c19.8,26.6,18.5,65.9-2.7,91.9
	c-16.1,19.7-37.5,30.6-61.4,37.3c-27.7,7.7-55.9,9.6-84.5,7.8c-26.5-1.7-52.4-6.1-77.5-15.2c-6-2.2-6-2.3-4.3-8.5
	c4.8-18,9.7-35.9,14.3-53.9c0.9-3.6,1.4-4.7,5.6-3.1c20.5,8.2,41.8,13.4,63.8,15.4c18.3,1.7,36.6,2.1,54.5-3.4
	c5.1-1.6,9.7-3.8,13.9-7.1c8.2-6.4,8.7-16.3,0.9-23.2c-7.9-7.1-17.8-10.4-27.5-13.9c-17.6-6.3-35.9-10.5-53.3-17.6
	c-18.4-7.6-35.9-16.6-50.2-30.9c-14.1-14.2-21.3-31.2-20.6-51.3c0.9-23.5,11.2-42.5,29.2-57.4c19.2-16,42-24,66.2-28.3
	C810.7,70.2,825.2,69,836.1,69.4z"/>
<path class="st0" d="M589.4,458.1c-3.7,20.5-14.2,37.1-27.6,52c-16,17.9-35.2,31.7-56.8,42.1c-9.7,4.6-20,6.5-30.4,7.6
	c-19.9,2.1-40,2.4-60,1.5c-26.8-1.2-53.4-3.7-79.9-7.9c-41.7-6.7-82.4-16.6-121.3-33.5c-25.1-10.9-48.4-24.5-67.7-44.2
	c-8.9-9-16.3-19.2-21.7-30.8c-8.1-17.3-5.9-34.2,2.9-50.5c6.5-12.1,15.4-22.4,24.4-32.5c2.5-2.8,4.5-8,7.8-7.8
	c2.8,0.2,5.3,4.8,8.1,7.3c21.9,20.6,47,36.4,73.8,49.8c37,18.5,76,31,116.4,39.3c24.3,5,48.9,8.4,73.6,10.6c15,1.3,30,1.6,45,2.2
	c16.8,0.7,33.6,0,50.4-0.6c19.7-0.7,39.4-2.1,58.9-4.6C586.5,457.9,587.8,458.1,589.4,458.1z"/>
<path class="st0" d="M401,75.7c19.2-14.1,39.1-25.6,62.6-29.5c9.7-1.6,17.9,0.4,25.4,7.6c14.9,14,27.5,29.8,38.4,46.9
	c31,48.4,51.5,101,63.7,157.1c5.4,24.7,8.7,49.6,10.1,74.8c1.9,33.3-0.4,66.3-6.1,99.1c-0.4,2.6-1.5,4.5-3.8,6.1
	c-10.5,7.2-22.4,9.2-34.8,8.5c-12.4-0.8-24.2-3.9-35.8-8.2c-2.4-0.9-3.9-2-4.5-5c-2.7-14.9-4.8-29.8-6.4-44.8
	c-2.1-19.2-4.4-38.3-6.5-57.4c-3.2-28.8-8.3-57.2-16-85.1c-13.6-49.1-32.2-96.2-60-139.2C420.1,95.1,411.8,84.7,401,75.7z"/>
<path class="st0" d="M329.5,134.2c13.1-15.6,26.3-31,42.6-43.3c3.1-2.3,6.4-4.3,10.1-5.6c3.9-1.5,6.9-0.6,9.6,2.6
	c10.6,12.4,19.5,25.9,27.7,39.9c23,39,39.6,80.5,49.3,124.7c5,22.9,8.9,46.1,12.9,69.2c2.9,16.7,5.6,33.3,7.1,50.1
	c1.5,17,2.8,34-3,50.6c-2.4,6.8-6.1,12.7-12,17.1c-6.4,4.8-12.8,4.7-19-0.4c-8.4-6.8-13.1-16.3-18.5-25.4
	c-10-16.9-14.4-35.7-18.4-54.6c-8.4-40.9-16.6-81.9-30.1-121.5c-10-29.4-22.2-57.7-40.8-82.8C341.8,147.6,335.8,140.8,329.5,134.2z"
	/>
<path class="st0" d="M531.6,566.3c-6.3,10.7-11.7,20.9-18,30.4c-7.9,11.9-20.2,18.3-33.1,23.3c-15.5,5.9-31.6,8.7-48.1,10.3
	c-18.2,1.7-36.3,1.6-54.5,0.4c-21.2-1.4-42.2-4.2-63-8c-25.4-4.6-50.6-9.8-75.3-17.6c-29.4-9.3-57.3-21.7-81.9-40.8
	c-22.8-17.7-40.7-39-49.1-67.3c-1.3-4.3-2-8.6-2.7-13c-0.5-3.5,1.5-5.7,5.2-6c5.2-0.4,9.4,2,13.6,4.5c7.1,4.2,13.4,9.5,19.2,15.3
	c17.5,17.7,38.6,29.6,61.2,39.2c32.4,13.8,66.3,22.3,100.8,28.8c22.2,4.2,44.5,7.4,67,9.7c24.5,2.5,49,4.7,73.6,3.4
	C474.7,577.4,502.8,573.6,531.6,566.3z"/>
<path class="st0" d="M337.7,0.2c-9.9,5.5-19.2,10.4-28.4,15.7c-35.2,20.3-68,43.9-98.9,70.1c-32.4,27.5-62.4,57.4-90.2,89.6
	c-38.2,44.2-72,91.5-100.8,142.3c-1.6,2.8-2.9,5.6-5.6,7.6c-3.4,2.5-6.8,2.7-10.5,0.8c-3.4-1.7-3.5-4.8-3.2-7.9
	c1.3-12.4,4.3-24.5,6.4-36.7c4.3-25.7,17.1-47.9,28.4-70.7c17.2-34.8,37.5-67.8,62.2-98c22.3-27.3,48.6-50.2,77.6-70.3
	c18.8-13.1,38-25.2,60.1-32.1c17.4-5.5,35.1-8.4,53.3-9.8c15.9-1.2,31.7-0.6,47.6-0.7C336,0.1,336.5,0.1,337.7,0.2z"/>
<path class="st0" d="M1811.2,513.9c-1.6-26.5-0.8-53.1-1.1-79.7c0-3,0.5-4.2,3.8-3.9c4.3,0.3,8.6,0.2,12.9,0.1
	c1.9,0,2.9,0.2,2.9,2.6c-0.1,37.3-0.1,74.6,0,111.9c0,1.9-0.4,2.7-2.5,2.7c-5.8-0.1-11.7-0.2-17.5,0c-2.1,0.1-2.9-1-3.7-2.6
	c-16.8-29.1-35.4-57.1-49.2-87.8c-0.2-0.5-0.6-0.9-1.2-1.2c0.4,7.7,0.4,15.3,0.6,23c0.7,21.8,0.4,43.7,0.5,65.5c0,2.4-0.7,3.1-3.1,3
	c-4.2-0.2-8.4-0.3-12.5,0c-3.4,0.3-4.4-0.6-4.4-4.2c0.2-24.1,0.1-48.2,0.1-72.3c0-12.5,0.1-25.1-0.1-37.6c0-2.5,0.5-3.3,3.2-3.2
	c6.3,0.2,12.5,0.1,18.8,0.1c1.6,0,2.8,0.1,3.8,1.7c14.7,25.4,31.2,49.7,43.8,76.2c1.4,3,2.8,6,4.2,9c0.3,0,0.7,1.1,1,0.1
	C1811.7,516.2,1812,515,1811.2,513.9z"/>
<path class="st0" d="M768.1,527.5c1.2,5.2,2.3,10.4,3.4,15.5c0.5,2.4-1.7,2.3-2.9,2.7c-9.8,3.3-20,4.3-30.3,4
	c-12.7-0.4-24.6-3.4-35.1-11c-11.6-8.4-18.1-20-20.6-33.9c-3.2-18.2-1.3-35.7,9.4-51.3c9.4-13.7,22.8-21.1,38.9-23.8
	c12.7-2.1,25.4-1.7,37.8,2.4c2.9,0.9,4.2,1.7,3,5.1c-1.5,4.3-2.4,8.7-3.6,13.5c-8-3.1-16.2-4.4-24.7-4.3
	c-20.6,0.2-35.6,13.4-38.7,33.8c-1.5,10.3-0.9,20.2,3.2,29.7c6,13.8,17.1,20.4,31.5,21.7C749,532.3,758.7,531.4,768.1,527.5z"/>
<path class="st0" d="M1505.1,497.8c0,15.3-0.1,30.6,0.1,45.9c0,3.2-0.9,4-4,3.9c-4.6-0.3-9.2-0.3-13.8,0c-3.1,0.2-3.9-0.6-3.9-3.8
	c0.1-30.1,0.1-60.1,0.1-90.2c0-6.3,0.9-5.5-5.5-5.5c-8.2,0-16.4-0.2-24.6,0.1c-2.9,0.1-3.5-0.9-3.3-3.5c0.2-3.6,0.2-7.2,0-10.8
	c-0.1-2.6,0.4-3.5,3.3-3.5c27.4,0.1,54.8,0.1,82.2,0c2.7,0,3.3,0.8,3.1,3.3c-0.2,3.7-0.3,7.5,0,11.3c0.2,3-1,3.3-3.5,3.3
	c-8.8-0.1-17.5,0.1-26.3-0.1c-3.1-0.1-4,0.7-4,3.9C1505.2,467.2,1505.1,482.5,1505.1,497.8z"/>
<path class="st0" d="M1557.2,488.9c0-18.5,0.1-37-0.1-55.6c0-3.1,0.7-4,3.8-3.8c5,0.3,10,0.3,15,0c3.2-0.2,3.9,0.7,3.8,3.8
	c-0.1,32.2-0.1,64.3-0.1,96.5c0,5.3-0.1,10.6,0,15.9c0.1,2-0.5,2.6-2.6,2.6c-5.6-0.1-11.1-0.2-16.7,0c-2.7,0.1-3.4-0.7-3.4-3.4
	C1557.2,526.2,1557.2,507.5,1557.2,488.9z"/>
<path class="st0" d="M1242.4,365c-5.9-19.4-11.5-38.8-17.3-58.2c-22.7-76.1-45.5-152.3-68.1-228.4c-0.7-2.4-1.7-3.2-4.2-3.2
	c-32.6,0.1-65.2,0.1-97.8,0c-2.7,0-3.6,0.7-4.4,3.4c-20.7,71.7-41.6,143.3-62.5,215c-7.2,24.7-14.4,49.5-21.8,74.7
	c26.5,0,52.6,0,78.6,0c2.3,0,2.9-0.8,3.5-3c4.9-20.4,10-40.7,14.8-61.1c0.8-3.2,2-4.1,5.2-4.1c22.4,0.1,44.8,0.2,67.3,0
	c3.3,0,4.5,1.1,5.3,4.1c5.5,20.4,11.1,40.7,16.7,61c0.6,2.2,1.4,3.2,3.8,3.2c26.2-0.1,52.4-0.1,78.6,0
	C1242.8,368.4,1243.2,367.8,1242.4,365z M1124.7,242.3c-15.3-0.1-30.6-0.1-45.9,0c-3.2,0-4.2-0.2-3.3-4c8.3-34,16.7-68,23.7-102.3
	c0.3-1.3,0.7-2.6,1.1-3.9c0.3,0,0.6,0.1,0.9,0.1c2.8,11.3,5.5,22.7,8.3,34c6.1,24,12.1,48.1,18.4,72.1
	C1128.9,241.8,1128.1,242.3,1124.7,242.3z"/>
<path class="st0" d="M1826.3,364c-7-22.8-13.8-45.6-20.6-68.4c-21.5-72.2-43.1-144.3-64.5-216.5c-0.9-3.2-2.2-3.9-5.3-3.9
	c-31.6,0.1-63.2,0.2-94.8,0c-4.4,0-5.9,1.2-7.1,5.5c-20,69.3-40.2,138.6-60.3,207.9c-7.5,25.6-14.9,51.3-22.4,76.9
	c-0.6,2.1-0.8,2.9,1.8,2.9c25.3-0.1,50.7-0.1,76,0c2.1,0,2.9-0.8,3.4-2.7c5-20.6,10.1-41.2,14.9-61.9c0.7-3,1.8-3.6,4.7-3.6
	c22.4,0.1,44.8,0.2,67.3,0c3.6,0,5,1,5.9,4.4c5.4,20.2,11.1,40.4,16.5,60.6c0.7,2.6,1.7,3.2,4.2,3.2c12.9-0.1,25.9,0,38.9,0
	c12.7,0,25.3-0.2,38,0.1C1826.6,368.5,1827.4,367.7,1826.3,364z M1709.5,242.3c-15.7-0.1-31.5-0.1-47.2,0c-3.3,0-3.6-1-2.9-3.9
	c8.5-34.3,16.7-68.6,23.9-103.2c0.2-1.1,0.6-2.1,1-3.2c0.3,0,0.6,0,0.9,0c2,8.3,4.1,16.5,6.1,24.8c6.9,27.3,13.7,54.5,20.7,81.8
	C1712.8,241.5,1712.6,242.3,1709.5,242.3z"/>
<path class="st0" d="M893.7,474.7c-3.5-24.2-20.9-44.4-47.8-46.2c-22.8-1.5-40.7,6.5-52.5,26.4c-9.2,15.4-10.1,32.3-7.5,49.4
	c4.1,26.9,25.7,45.3,52.7,45.5c2.6-0.3,5.2-0.5,7.9-0.8c14.9-1.6,27.3-8,36.2-20.2C894.6,512.6,896.5,494.1,893.7,474.7z M861.8,522
	c-12.8,14.9-34.7,13.8-46.1-2.4c-7.3-10.4-8.9-22.1-8.2-34.4c0.6-11.8,3.4-22.7,12-31.4c12.7-12.8,33.6-10.9,43.9,3.9
	c6.5,9.3,8.9,19.8,8.8,31C872,500.8,870,512.5,861.8,522z"/>
<path class="st0" d="M1228.9,476.2c-4-29.2-26.1-50.9-59.4-47.6c-20.4,2-34.8,12.4-43.6,30.8c-6.2,13-7.6,26.8-5.7,40.9
	c2.2,16.6,9,30.8,23.2,40.5c11.4,7.8,24.1,9.9,37.7,8.3c14.7-1.7,27-7.8,36.1-19.6c9.4-12.2,12.5-26.3,12.5-42
	C1229.2,484.2,1229.5,480.2,1228.9,476.2z M1202,513.7c-5.7,11.9-14.6,19-28.3,18.6c-13.1-0.4-21.7-7.7-26.7-19.1
	c-6.8-15.4-6.6-31.2-0.8-46.8c5.3-14.1,16-21.2,30.1-21c11.7,0.2,22.5,9,27.3,22.2c2.4,6.8,3.9,13.8,3.4,20.6
	C1207.3,497.5,1205.8,505.8,1202,513.7z"/>
<path class="st0" d="M1702.5,450.1c-9.4-13.6-22.7-20.7-39.3-21.7c-17.3-1.1-32.3,3.6-44.3,16.5c-11.8,12.6-16,28.1-16,45
	c-0.1,16.2,3.9,31.1,15,43.3c12.3,13.5,28.1,17.9,45.9,16c19.1-2,33.2-11.3,42.1-28.3c4.6-8.9,6.6-18.5,7.1-28.3
	C1713.8,477.3,1711.3,462.8,1702.5,450.1z M1690.4,492.4c-0.5,8.5-2.1,16.8-6.4,24.2c-6.1,10.5-15.1,16.4-27.6,15.7
	c-11.4-0.6-19.5-6.7-24.7-16.4c-4.5-8.3-6.5-17.3-5.9-26.2c-0.3-10.4,1.5-19.8,6.4-28.4c12-21.2,39.3-21.3,51.5-0.3
	C1689.3,470.6,1691,481.3,1690.4,492.4z"/>
<path class="st0" d="M993.8,520.8c-2.9-11.3-5.3-22.9-18.1-28.8c15.7-6.7,22.7-17.8,21.5-33.5c-1-13.4-9.8-23.3-24.9-26.9
	c-17-4-34.2-2.3-51.3-0.1c-1.8,0.2-2.4,1.2-2.4,3.1c0.1,36.8,0.1,73.5,0,110.3c0,2.3,0.7,2.8,2.8,2.7c4.9-0.1,9.8-0.2,14.6,0
	c2.9,0.1,3.8-0.6,3.7-3.6c-0.2-10.9-0.1-21.7,0-32.6c0-3.9-1.7-9.1,0.7-11.2c2.8-2.3,8-0.7,12.1-0.6c8.1,0.2,13.6,4.1,16.4,11.7
	c0.9,2.3,1.7,4.7,2.3,7.1c2,8.6,3.9,17.2,6.8,25.6c0.5,1.4,0.4,3.5,2.8,3.5c6.7,0,13.5,0,20.4,0
	C998.2,538.4,996.1,529.6,993.8,520.8z M960.3,483c-6.1,1.3-12.2,0.7-18.3,0.9c-2.4,0.1-2.3-1.4-2.3-3c0-5.3,0-10.6,0-15.9
	c0,0,0,0,0,0c0-4.6,0.2-9.2-0.1-13.8c-0.2-3.5,0.5-5.1,4.5-5.4c5.9-0.4,11.7-0.7,17.4,0.6c9.5,2.2,14.4,8.7,14.1,18.6
	C975.5,474.1,969.4,481.1,960.3,483z"/>
<path class="st0" d="M1327.7,516.8c-2.6-10.3-6-19.9-16.8-24.8c0.6-0.4,0.8-0.5,1-0.6c13.8-6,21.4-17.4,20.5-31
	c-0.9-14.8-9-24.6-24.6-28.5c-17.2-4.4-34.5-2.4-51.7-0.4c-1.7,0.2-2.4,1.1-2.4,3.1c0.1,36.8,0.1,73.5,0,110.3
	c0,2.3,0.8,2.8,2.9,2.7c5-0.1,10-0.2,15,0c2.5,0.1,3.3-0.5,3.3-3.2c-0.2-11.3-0.1-22.6-0.1-33.8c0-11.8,0-11.7,12-11.1
	c9.4,0.4,15.2,5.1,18,13.8c0.7,2.1,1.2,4.2,1.7,6.4c2,8.3,3.7,16.7,6.7,24.8c0.5,1.3,0.4,3.1,2.6,3.1c6.6,0,13.3,0,20.1,0
	C1333,537,1330.2,527,1327.7,516.8z M1310.7,464.9c-0.4,9-6,16-15.4,18.1c-6.2,1.3-12.5,0.7-18.7,0.9c-2.3,0.1-2-1.4-2-2.8
	c0-5.3,0-10.6,0-15.9c0-5.3,0.1-10.6,0-15.9c-0.1-2.3,0.7-2.9,3-3.2c6.3-0.8,12.5-1.2,18.6,0.3
	C1305.1,448.5,1311.1,454.6,1310.7,464.9z"/>
<path class="st0" d="M1445.1,521.4c-9.5-29.2-18.9-58.4-28.5-87.5c-0.5-1.7-0.7-3.6-3.6-3.5c-7.6,0.3-15.3,0.1-23,0.1
	c-1.6,0-2.3,0.5-2.8,2.2c-1.9,6.3-4,12.6-6,18.9c-9.9,30.9-19.8,61.8-29.8,92.7c-0.9,2.8-0.6,3.6,2.4,3.5c5.3-0.2,10.6-0.1,15.9,0
	c2.2,0,3-0.6,3.7-2.8c2.6-9,5.6-17.9,8.1-26.9c0.8-2.8,2.1-3.4,4.6-3.3c10,0.1,20,0.2,30.1,0c3-0.1,4,1.1,4.8,3.7
	c2.7,8.8,5.5,17.6,8.4,26.3c0.5,1.5,0.5,3.2,3,3.2c6.9-0.2,13.9-0.1,21.1-0.1C1450.6,538.6,1447.9,530,1445.1,521.4z M1413.5,498.1
	c-8.2,0-16.4-0.1-24.6,0c-2.3,0-2.6-0.8-2-2.6c5-15.5,10.1-31.1,14-47.1c4.1,16.1,9.6,31.6,14.6,47.3
	C1416.3,498.2,1415.2,498.1,1413.5,498.1z"/>
<path class="st0" d="M1088.2,437.4c-8-5.3-16.9-7.5-26.3-7.7c-11.4-0.4-22.7-0.2-34.1,1.4c-4.1,0.5-4.9,1.8-4.8,5.6
	c0.2,17.7,0.1,35.3,0.1,53c0,18.1,0.1,36.2-0.1,54.3c0,3.3,0.9,3.9,3.9,3.8c4.6-0.3,9.2-0.3,13.8,0c2.9,0.2,3.4-0.9,3.3-3.5
	c-0.1-12.4,0-24.8-0.1-37.1c0-2.2-0.3-3.5,3.2-3.2c11.5,1,22.9,0,33.7-4.8C1107.5,487.3,1107.3,450,1088.2,437.4z M1071.6,483.1
	c-7.8,5.1-16.6,4.4-25.3,3.8c-1.9-0.1-2.3-1.3-2.3-3.2c0.1-5.7,0-11.4,0-17.1s0.1-11.4-0.1-17.1c0-1.9,0.6-3,2.4-3.1
	c7.2-0.5,14.3-1.2,21.4,1.1c8.3,2.7,12.3,8.7,12.8,17C1080.9,472.2,1078.2,478.8,1071.6,483.1z"/>
</svg>
